

<svg width="55" height="54" viewBox="0 0 55 54" fill="none" xmlns="http://www.w3.org/2000/svg">
<path d="M22.6978 4.88012C27.8052 3.59216 33.1971 4.05736 38.0084 6.20106C42.8197 8.34476 46.7713 12.0427 49.2292 16.7013C51.687 21.36 52.5084 26.7093 51.5618 31.8908C50.6151 37.0722 47.9551 41.7855 44.0088 45.2741C40.0624 48.7626 35.0585 50.8243 29.8 51.1282C24.5415 51.4321 19.3334 49.9606 15.0115 46.9499C10.6895 43.9392 7.50428 39.5637 5.96698 34.5258C4.42969 29.4879 4.62945 24.0796 6.53421 19.1688" stroke="#191919"/>
<rect width="17.5532" height="6.86663" transform="matrix(0.280309 -0.95991 -0.95991 -0.280309 6.59135 36.6635)" fill="url(#paint0_linear)"/>
<rect width="21.3161" height="6.86663" transform="matrix(-0.975781 -0.218748 -0.218748 0.975781 43.6349 5.66286)" fill="url(#paint1_linear)"/>
<line x1="32.1559" y1="23.5761" x2="25.2419" y2="30.4901" stroke="#191919"/>
<line y1="-0.5" x2="9.77791" y2="-0.5" transform="matrix(0.707107 0.707107 0.707107 -0.707107 25.58 23.2225)" stroke="#191919"/>
<defs>
<linearGradient id="paint0_linear" x1="17.5532" y1="0" x2="0" y2="0" gradientUnits="userSpaceOnUse">
<stop stop-color="#ff7714"/>
<stop offset="1" stop-color="#ff7714" stop-opacity="0"/>
</linearGradient>
<linearGradient id="paint1_linear" x1="21.3161" y1="0" x2="0" y2="0" gradientUnits="userSpaceOnUse">
<stop stop-color="#ff7714"/>
<stop offset="1" stop-color="#ff7714" stop-opacity="0"/>
</linearGradient>
</defs>
</svg>
