<svg width="1082" height="1963" xmlns="http://www.w3.org/2000/svg" xmlns:xlink="http://www.w3.org/1999/xlink"><defs><symbol viewBox="0 0 147 143" id="arrow-bold">
    <path d="m92.6.6 53.801 71.2-53.8 71.2H67l25-33c8.2-10.8 15-19.8 22.2-28.8H.801v-19h113.4c-7.2-9-14-17.8-22.2-28.6L67 .6h25.6Z" />
</symbol><symbol viewBox="0 0 9 9" id="arrow-bottom">
    <path d="M7.14 6.042c-.596.44-1.079.803-1.573 1.187V1H4.398v6.22a48.31 48.31 0 0 0-1.55-1.177L.994 4.67v1.373l4 2.957 4-2.957V4.67L7.14 6.042Z" />
</symbol><symbol viewBox="0 0 13 13" id="arrow-close">
    <path fill-rule="evenodd" clip-rule="evenodd" d="M11.186 1.813a.5.5 0 0 1 0 .708l-3.25 3.25a.5.5 0 1 1-.708-.708l3.25-3.25a.5.5 0 0 1 .708 0ZM5.77 7.23a.5.5 0 0 1 0 .708l-3.25 3.25a.5.5 0 1 1-.708-.708l3.25-3.25a.5.5 0 0 1 .708 0ZM7.228 7.23a.5.5 0 0 1 .708 0l3.25 3.25a.5.5 0 0 1-.707.707l-3.25-3.25a.5.5 0 0 1 0-.707ZM1.812 1.813a.5.5 0 0 1 .708 0l3.25 3.25a.5.5 0 0 1-.708.708l-3.25-3.25a.5.5 0 0 1 0-.708Z" />
</symbol><symbol viewBox="0 0 13 13" id="arrow-expand">
    <path fill-rule="evenodd" clip-rule="evenodd" d="M8.166 2.167a.5.5 0 0 1 .5-.5h2.167a.5.5 0 0 1 .5.5v2.167a.5.5 0 0 1-1 0V2.667H8.666a.5.5 0 0 1-.5-.5Z" />
    <path fill-rule="evenodd" clip-rule="evenodd" d="M11.186 1.813a.5.5 0 0 1 0 .708l-3.25 3.25a.5.5 0 1 1-.708-.708l3.25-3.25a.5.5 0 0 1 .708 0ZM2.166 8.167a.5.5 0 0 1 .5.5v1.667h1.667a.5.5 0 1 1 0 1H2.166a.5.5 0 0 1-.5-.5V8.667a.5.5 0 0 1 .5-.5Z" />
    <path fill-rule="evenodd" clip-rule="evenodd" d="M5.77 7.23a.5.5 0 0 1 0 .708l-3.25 3.25a.5.5 0 1 1-.708-.708l3.25-3.25a.5.5 0 0 1 .708 0ZM10.833 8.167a.5.5 0 0 1 .5.5v2.167a.5.5 0 0 1-.5.5H8.666a.5.5 0 0 1 0-1h1.667V8.667a.5.5 0 0 1 .5-.5Z" />
    <path fill-rule="evenodd" clip-rule="evenodd" d="M7.228 7.23a.5.5 0 0 1 .708 0l3.25 3.25a.5.5 0 0 1-.707.707l-3.25-3.25a.5.5 0 0 1 0-.707ZM1.666 2.167a.5.5 0 0 1 .5-.5h2.167a.5.5 0 0 1 0 1H2.666v1.667a.5.5 0 0 1-1 0V2.167Z" />
    <path fill-rule="evenodd" clip-rule="evenodd" d="M1.812 1.813a.5.5 0 0 1 .708 0l3.25 3.25a.5.5 0 0 1-.708.708l-3.25-3.25a.5.5 0 0 1 0-.708Z" />
</symbol><symbol viewBox="0 0 9 9" id="arrow-left">
    <path d="M3.95 7.145a75.766 75.766 0 0 0-1.187-1.573h6.23V4.403h-6.22a48.32 48.32 0 0 0 1.177-1.55L5.323.998H3.95l-2.956 4 2.956 4h1.373L3.95 7.145Z" />
</symbol><symbol viewBox="0 0 9 9" id="arrow-right">
    <path d="M6.038 2.701c.44.558.802 1.01 1.186 1.473H.994V5.27h6.22c-.385.452-.748.905-1.176 1.452L4.664 8.458h1.374L8.994 4.71 6.038.965H4.664L6.038 2.7Z" />
</symbol><symbol viewBox="0 0 38 39" id="back-arrow-left">
    <path d="m1.706 19.5 18.118 18.146-.706.707L.293 19.5 19.118.646l.706.708L1.706 19.5Z" />
    <path d="M38 20.028H1.058v-1H38v1Z" />
</symbol><symbol viewBox="0 0 38 39" id="back-arrow-right">
    <path d="M36.294 19.5 18.176 1.354l.706-.708L37.707 19.5 18.882 38.354l-.706-.708L36.294 19.5Z" />
    <path d="M0 18.972h36.942v1H0v-1Z" />
</symbol><symbol viewBox="0 0 6 6" id="drag-arrow-left">
    <path d="M2.217 1.385c-.33.445-.602.806-.89 1.175H6v.873H1.335c.289.361.56.722.882 1.158l1.03 1.386h-1.03L0 2.988 2.217 0h1.03l-1.03 1.385Z" />
</symbol><symbol viewBox="0 0 6 6" id="drag-arrow-right">
    <path d="M3.783 4.592c.33-.445.602-.806.89-1.175H0v-.873h4.665a36.11 36.11 0 0 1-.882-1.159L2.753 0h1.03L6 2.988 3.783 5.977h-1.03l1.03-1.385Z" />
</symbol><symbol viewBox="0 0 222 84" id="footer-logo">
<path d="M225 83.0872V0H0V51.1817L33.2349 83.0872H225Z" fill="black"/>
<path d="M52.6025 66.9682V14.6233H64.1183V37.6551L82.6634 14.6233H95.974L75.3351 40.1976L97.0956 66.9682H83.4112L64.1183 43.1139V66.9682H52.6025Z" fill="white"/>
<path d="M93.6973 66.9682L112.317 14.6233H126.45L145.145 66.9682H133.18L119.421 27.1861H119.047L105.363 66.9682H93.6973ZM105.961 57.3966L109.775 47.4511H129.068L132.806 57.3966H105.961Z" fill="white"/>
<path d="M145.873 66.9682V58.5183L170.998 24.5689H146.621V14.6233H185.655V23.0733L160.455 57.0227H186.029V66.9682H145.873Z" fill="white"/>
<path d="M187.034 66.9682V14.6233H198.55V66.9682H187.034Z" fill="white"/>
<path d="M208.798 67.1344C207.646 67.1344 206.616 66.8796 205.707 66.37C204.799 65.8604 204.09 65.1514 203.58 64.243C203.071 63.3346 202.816 62.3043 202.816 61.1521C202.816 60 203.071 58.9697 203.58 58.0613C204.09 57.1529 204.799 56.4439 205.707 55.9343C206.616 55.4247 207.646 55.1699 208.798 55.1699C209.95 55.1699 210.98 55.4247 211.889 55.9343C212.797 56.4439 213.506 57.1529 214.016 58.0613C214.525 58.9697 214.78 60 214.78 61.1521C214.78 62.3043 214.525 63.3346 214.016 64.243C213.506 65.1514 212.797 65.8604 211.889 66.37C210.98 66.8796 209.95 67.1344 208.798 67.1344ZM210.51 64.2264L208.582 61.6174L209.297 61.4014L211.374 64.2264H210.51ZM208.798 66.3866C209.773 66.3866 210.654 66.1706 211.44 65.7386C212.227 65.2954 212.847 64.6806 213.301 63.894C213.767 63.0964 213.999 62.1824 213.999 61.1521C213.999 60.1108 213.767 59.1968 213.301 58.4103C212.847 57.6126 212.227 56.9978 211.44 56.5657C210.654 56.1337 209.773 55.9176 208.798 55.9176C207.834 55.9176 206.953 56.1337 206.156 56.5657C205.369 56.9978 204.749 57.6126 204.295 58.4103C203.84 59.1968 203.613 60.1108 203.613 61.1521C203.613 62.1824 203.84 63.0964 204.295 63.894C204.749 64.6806 205.369 65.2954 206.156 65.7386C206.953 66.1706 207.834 66.3866 208.798 66.3866ZM206.887 64.2264V57.9948H209.297C209.729 57.9948 210.1 58.0724 210.41 58.2275C210.72 58.3826 210.958 58.6041 211.124 58.8922C211.291 59.1802 211.374 59.5181 211.374 59.9058C211.374 60.4819 211.185 60.9472 210.809 61.3017C210.443 61.6451 209.939 61.8168 209.297 61.8168H207.635V64.2264H206.887ZM209.213 61.1521C209.679 61.1521 210.028 61.0469 210.26 60.8364C210.504 60.6259 210.626 60.3157 210.626 59.9058C210.626 59.4959 210.504 59.1857 210.26 58.9753C210.028 58.7648 209.679 58.6595 209.213 58.6595H207.635V61.1521H209.213Z" fill="white"/>

</symbol><symbol viewBox="0 0 459 14" preserveAspectRatio="none" id="header-footer">
    <path fill-rule="evenodd" d="M119 13.5H11.988L0 1.094V0h459v13.5H221v-3a4 4 0 0 0-4-4h-94a4 4 0 0 0-4 4v3Z" />
</symbol><symbol viewBox="0 0 72 72" id="header-logo">
<path d="M24.1931 3.46869L31.1055 18.2808L36.2897 1L40.6099 18.2808L48.3863 3.46869" stroke="black" stroke-width="3" stroke-linejoin="bevel"/>
<path d="M52.8855 6.02992L45.8807 20.7986L62.4994 13.7756L51.9401 28.121L68.3094 24.669" stroke="black" stroke-width="3" stroke-linejoin="bevel"/>
<path d="M33.5955 69.0352L33.0374 52.6991L21.4985 66.5684L24.2924 48.9762L11.3355 59.5588" stroke="black" stroke-width="3" stroke-linejoin="bevel"/>
<path d="M7.87128 53.7176L20.7385 43.6372L2.73322 42.4916L18.591 34.3786L2.40485 30.1501" stroke="black" stroke-width="3" stroke-linejoin="bevel"/>
<path d="M3.88332 25.1905L19.8528 28.6772L9.25641 14.0751L25.6168 21.12L18.5553 5.95402" stroke="black" stroke-width="3" stroke-linejoin="bevel"/>
<path d="M69.5848 29.9879L53.6624 33.6835L69.4953 42.3335L51.6944 42.982L64.5755 53.6568" stroke="black" stroke-width="3" stroke-linejoin="bevel"/>
<path d="M61.138 57.5282L48.1398 47.6173L51.5696 65.33L39.7214 52.0292L39.7093 68.7585" stroke="black" stroke-width="3" stroke-linejoin="bevel"/></symbol>

<symbol viewBox="0 0 936 124" id="hero-logo">
<path d="M0 0H225.088C231.004 0 236.584 1.19687 241.828 3.5906C247.072 5.98434 251.308 9.21067 254.535 13.2696C257.762 17.3286 259.375 21.8038 259.375 26.6953V98.039C259.375 102.827 257.762 107.302 254.535 111.465C251.308 115.524 247.072 118.802 241.828 121.3C236.584 123.694 231.004 124.891 225.088 124.891H0V0ZM222.062 106.625C225.962 106.625 229.189 105.637 231.744 103.659C234.433 101.578 235.777 98.9237 235.777 95.6974L235.576 28.8809C235.576 25.6546 234.298 23.0527 231.744 21.0753C229.189 19.0978 225.895 18.1091 221.861 18.1091H23.5979V106.625H222.062Z" />
<path d="M360.421 124.891C354.505 124.891 348.858 123.694 343.479 121.3C338.235 118.802 334 115.524 330.773 111.465C327.68 107.406 326.134 102.983 326.134 98.1952V26.6953C326.134 21.8038 327.747 17.3286 330.974 13.2696C334.201 9.10659 338.437 5.88026 343.681 3.5906C348.925 1.19687 354.505 0 360.421 0H551.423C557.339 0 562.92 1.19687 568.164 3.5906C573.542 5.98434 577.777 9.26271 580.87 13.4257C584.097 17.4847 585.711 21.9079 585.711 26.6953V44.18H562.314V29.037C562.314 25.8107 560.97 23.2088 558.281 21.2314C555.726 19.1499 552.499 18.1091 548.599 18.1091H363.447C359.547 18.1091 356.253 19.1499 353.564 21.2314C351.009 23.2088 349.732 25.8107 349.732 29.037V95.6974C349.732 98.9237 351.076 101.578 353.765 103.659C356.455 105.637 359.749 106.625 363.648 106.625H548.398C552.432 106.625 555.726 105.637 558.281 103.659C560.835 101.578 562.113 98.9757 562.113 95.8535L562.314 73.5293H455.821V57.918H585.711V98.1952C585.711 103.087 584.097 107.562 580.87 111.621C577.643 115.68 573.34 118.906 567.962 121.3C562.718 123.694 557.138 124.891 551.221 124.891H360.421Z" />
<path d="M654.237 0H677.028L794.614 75.2465L912.2 0H936V124.891H912.402V22.9486L798.043 96.1657H791.185L677.835 23.7292V124.891H654.237V0Z" />

</symbol><symbol viewBox="0 0 1082 261" id="title-advsr">
	<path style="--index:0;" d="M1073.39 224.35C1074.09 235.2 1076.54 246.75 1081.79 254.8H1043.29C1038.04 247.1 1036.29 235.9 1035.94 222.95L1034.89 196.35C1033.49 162.75 1020.19 152.25 992.54 152.25H920.09V254.8H882.64V5.6001H991.49C1043.99 5.6001 1077.24 31.1501 1077.24 74.5501C1077.24 105.7 1061.14 126.35 1035.24 134.75C1060.79 142.1 1069.89 159.6 1070.94 185.5L1073.39 224.35ZM992.19 121.1C1019.49 121.1 1038.74 106.75 1038.74 78.0501C1038.74 49.3501 1019.49 37.8001 989.39 37.8001H920.09V121.1H992.19Z" />
	<path style="--index:1;" d="M766.45 260.4C703.8 260.4 662.15 232.75 661.8 172.55H699.25C699.95 215.6 729.35 228.55 767.15 228.55C804.95 228.55 824.55 214.2 824.55 186.9C824.55 164.85 809.85 154.7 768.2 145.6L746.85 141.05C701.7 131.95 669.15 112.7 669.15 67.55C669.15 26.95 702.05 0 757.35 0C829.1 0 855.35 35.35 856.4 78.75H819.3C817.2 49.35 802.85 31.85 757.7 31.85C724.1 31.85 707.3 45.5 707.3 66.85C707.3 88.2 718.85 99.4 761.55 108.85L783.25 113.4C841.35 125.65 863.4 148.05 863.4 185.85C863.4 232.05 827.35 260.4 766.45 260.4Z" />
	<path style="--index:2;" d="M635.2 5.6001H674.05L583.05 254.8H540.35L447.6 5.6001H487.15L539.3 150.5C547.35 173.25 555.05 196.35 561.7 219.1C568.7 196.35 576.4 173.25 584.1 150.5L635.2 5.6001Z" />
	<path style="--index:3;" d="M337.56 5.6001C415.61 5.6001 461.11 53.2001 461.11 130.2C461.11 207.2 415.61 254.8 337.56 254.8H248.66V5.6001H337.56ZM337.21 221.9C392.16 221.9 421.91 188.3 421.91 130.2C421.91 72.1001 392.16 38.5001 337.21 38.5001H286.11V221.9H337.21Z" />
	<path style="--index:4;" d="M199.5 254.8L175 190.05H63L38.85 254.8H0L97.3 5.6001H140.35L239.05 254.8H199.5ZM74.9 157.5H162.75L157.5 143.85C147.35 118.3 131.25 76.3001 118.65 41.6501C106.05 76.3001 89.95 118.3 80.15 143.85L74.9 157.5Z" />
</symbol><symbol viewBox="0 0 287 250" id="title-ai">
    <path style="--index:0;" d="M248.66 249.2V0H286.11V249.2H248.66Z" />
    <path style="--index:1;" d="M199.5 249.2L175 184.45H63L38.85 249.2H0L97.3 0H140.35L239.05 249.2H199.5ZM74.9 151.9H162.75L157.5 138.25C147.35 112.7 131.25 70.7 118.65 36.05C106.05 70.7 89.95 112.7 80.15 138.25L74.9 151.9Z" />
</symbol><symbol viewBox="0 0 1038 261" id="title-blkch">
    <path style="--index:4;" d="M1000.3 5.6001H1037.8V254.8H1000.3V143.9H871.8V254.8H834.3V5.6001H871.8V109.6H1000.3V5.6001Z" />
    <path style="--index:3;" d="M702.8 260.4C634.2 260.4 585.2 210.7 585.2 130.2C585.2 49.7 633.8 0 702.8 0C754.6 0 800.1 27.3 812 88.2H774.2C764.1 48.6 735 33.2 702.8 33.2C655.2 33.2 624 69.2 624 130.1C624 191 655.1 227.1 702.8 227.1C736.8 227.1 770 206.8 775.9 162.7H813.4C806.4 228.2 756.7 260.4 702.8 260.4Z" />
    <path style="--index:2;" d="M604.3 5.6001L499.7 107.1L604.3 254.8H559.1L472.7 132.3L429.3 173.9V254.8H391.9V5.6001H429.3V130.6L556.7 5.6001H604.3Z" />
    <path style="--index:1;" d="M252.2 221.2H374.3V254.8H214.7V5.6001H252.1V221.2H252.2Z" />
    <path style="--index:0;" d="M152.6 124.6C182.7 135.8 195.7 159.2 195.7 184.1C195.7 226.4 168 254.8 112.4 254.8H0V5.6001H107.4C162 5.6001 185.4 35.7001 185.4 70.4001C185.5 95.2001 173.2 113.4 152.6 124.6ZM105 37.8001H37.5V112.4H105C134.4 112.4 148.8 97.7001 148.8 73.5001C148.7 52.5001 134.4 37.8001 105 37.8001ZM110.2 222.6C141.7 222.6 157.8 207.9 157.8 183.4C157.8 155.7 139.9 143.5 110.2 143.5H37.5V222.6H110.2Z" />
</symbol><symbol viewBox="0 0 1071 261" id="title-prdct">
	<path style="--index:0;" d="M1070.51 5.6001V39.2001H987.91V254.8H949.76V39.2001H867.16V5.6001H1070.51Z" />
	<path style="--index:1;" d="M772.52 260.4C703.92 260.4 654.92 210.7 654.92 130.2C654.92 49.7 703.57 0 772.52 0C824.32 0 869.82 27.3 881.72 88.2H843.92C833.77 48.65 804.72 33.25 772.52 33.25C724.92 33.25 693.77 69.3 693.77 130.2C693.77 191.1 724.92 227.15 772.52 227.15C806.47 227.15 839.72 206.85 845.67 162.75H883.12C876.12 228.2 826.42 260.4 772.52 260.4Z" />
	<path style="--index:2;" d="M519.41 5.6001C597.46 5.6001 642.96 53.2001 642.96 130.2C642.96 207.2 597.46 254.8 519.41 254.8H430.51V5.6001H519.41ZM519.06 221.9C574.01 221.9 603.76 188.3 603.76 130.2C603.76 72.1001 574.01 38.5001 519.06 38.5001H467.96V221.9H519.06Z" />
	<path style="--index:3;" d="M402.76 224.35C403.46 235.2 405.91 246.75 411.16 254.8H372.66C367.41 247.1 365.66 235.9 365.31 222.95L364.26 196.35C362.86 162.75 349.56 152.25 321.91 152.25H249.46V254.8H212.01V5.6001H320.86C373.36 5.6001 406.61 31.1501 406.61 74.5501C406.61 105.7 390.51 126.35 364.61 134.75C390.16 142.1 399.26 159.6 400.31 185.5L402.76 224.35ZM321.56 121.1C348.86 121.1 368.11 106.75 368.11 78.0501C368.11 49.3501 348.86 37.8001 318.76 37.8001H249.46V121.1H321.56Z" />
	<path style="--index:4;" d="M106.05 5.6001C162.4 5.6001 191.45 37.8001 191.45 84.3501C191.45 130.9 162.4 162.75 106.05 162.75H37.45V254.8H0V5.6001H106.05ZM105.35 129.85C136.85 129.85 153.3 113.4 153.3 84.3501C153.3 55.3001 136.85 38.5001 105.35 38.5001H37.45V129.85H105.35Z" />
</symbol><symbol viewBox="0 0 899 250" id="title-team">
	<path style="--index:0;" d="M846.24 0H898.39V249.2H862.34V171.15C862.34 135.8 862.34 92.05 863.74 44.8C857.44 64.05 851.14 80.85 842.74 102.55L786.39 249.2H754.89L697.84 102.55C689.79 81.2 683.49 64.75 677.19 45.85C678.59 92.75 678.59 136.15 678.59 171.15V249.2H642.54V0H694.34L745.44 132.65C754.19 156.1 763.99 182.7 770.99 203C777.99 182 788.14 152.95 796.89 129.15L846.24 0Z" />
	<path style="--index:1;" d="M593.38 249.2L568.88 184.45H456.88L432.73 249.2H393.88L491.18 0H534.23L632.93 249.2H593.38ZM468.78 151.9H556.63L551.38 138.25C541.23 112.7 525.13 70.7 512.53 36.05C499.93 70.7 483.83 112.7 474.03 138.25L468.78 151.9Z" />
	<path style="--index:2;" d="M395.98 33.6H255.63V103.95H382.68V136.85H255.63V215.6H394.93V249.2H218.18V0H395.98V33.6Z" />
	<path style="--index:3;" d="M203.35 0V33.6H120.75V249.2H82.6V33.6H0V0H203.35Z" />
</symbol></defs></svg>