<svg width="61" height="16" viewBox="0 0 61 16" fill="none" xmlns="http://www.w3.org/2000/svg">
<path d="M11.6179 2.25403L2.1174 13.975L2.16198 13.2558H12.1751V15.3488H0V13.0948L9.43359 1.45975L9.37787 2.09302H0.278606L0 2.09302L0 0H11.6179V2.25403Z" fill="white"/>
<path d="M14.2185 0H24.9838V2.09302H16.2913L16.5588 1.82469V6.91234L16.2913 6.64401H24.3152V8.73703H16.2913L16.5588 8.46869V13.5242L16.2913 13.2558H25.2067V15.3488H14.2185V0Z" fill="white"/>
<path d="M46.4528 0V15.3488H44.1125V0H46.4528Z" fill="white"/>
<path d="M61 0V2.09302H55.3164L55.5839 1.83542V15.3488H53.2436V1.83542L53.5111 2.09302H47.8275V0H61Z" fill="white"/>
<path d="M42.3527 15.3567L34.6783 7.68223L42.3527 0.0078125V15.3567ZM27.0039 15.3567L34.6783 7.68223L27.0039 0.0078125V15.3567Z" fill="white"/>
</svg>
