<svg width="622" height="286" viewBox="0 0 622 286" fill="none" xmlns="http://www.w3.org/2000/svg">
<path d="M92.0694 129.841C65.5576 129.841 48.9772 111.998 48.9772 83.3824V83.2983C48.9772 54.8506 65.8101 37.0077 91.8169 37.0077C115.299 37.0077 129.943 51.9049 131.206 69.7478L131.29 70.4211H111.511L111.343 69.6636C109.576 60.9947 103.179 54.009 92.0694 54.009C78.8556 54.009 70.355 65.2029 70.355 83.4666V83.5508C70.355 102.151 78.9398 112.924 92.1536 112.924C102.758 112.924 109.491 106.612 111.427 97.2696L111.596 96.5121H131.374L131.29 97.1013C129.691 115.702 114.626 129.841 92.0694 129.841Z" fill="#FF9D00"/>
<path d="M135.886 128.074V6.62433H156.842V128.074H135.886Z" fill="#FF9D00"/>
<path d="M205.288 129.841C178.523 129.841 162.364 112.083 162.364 83.7191V83.6349C162.364 55.524 178.776 37.0077 204.278 37.0077C229.78 37.0077 245.602 54.9348 245.602 81.8675V88.6006H183.152C183.489 104.255 192.074 113.513 205.708 113.513C216.145 113.513 222.962 107.958 224.982 101.983L225.15 101.394H244.761L244.508 102.319C241.731 116.038 228.601 129.841 205.288 129.841ZM204.53 53.4198C193.42 53.4198 185.088 60.9105 183.405 74.6293H225.235C223.72 60.4897 215.64 53.4198 204.53 53.4198Z" fill="#FF9D00"/>
<path d="M276.878 129.589C259.035 129.589 247 118.563 247 102.656V102.488C247 86.6649 259.288 77.1543 280.918 75.8076L304.232 74.3768V68.2328C304.232 59.2272 298.34 53.7565 287.735 53.7565C277.804 53.7565 271.744 58.3855 270.397 64.9504L270.229 65.7079H250.787L250.871 64.6979C252.134 48.875 265.852 37.0077 288.493 37.0077C310.796 37.0077 325.189 48.7908 325.189 66.7178V128.074H304.232V114.355H303.727C298.592 123.697 288.661 129.589 276.878 129.589ZM267.872 101.814C267.872 109.137 273.932 113.598 283.106 113.598C295.142 113.598 304.232 105.602 304.232 94.9971V88.264L283.864 89.5264C273.511 90.1998 267.872 94.6605 267.872 101.73V101.814Z" fill="#FF9D00"/>
<path d="M333.487 128.074V38.8594H354.444V52.8307H354.865C359.494 43.2359 368.584 37.0077 382.134 37.0077C401.745 37.0077 412.939 49.6324 412.939 70.3369V128.074H391.982V74.5452C391.982 61.8363 386.09 54.6823 374.139 54.6823C362.103 54.6823 354.444 63.4354 354.444 76.3126V128.074H333.487Z" fill="#FF9D00"/>
<path d="M432.263 26.0663C425.698 26.0663 420.564 20.8481 420.564 14.62C420.564 8.22345 425.698 3.08942 432.263 3.08942C438.828 3.08942 443.877 8.22345 443.877 14.62C443.877 20.8481 438.828 26.0663 432.263 26.0663ZM421.742 128.074V38.8594H442.699V128.074H421.742Z" fill="#FF9D00"/>
<path d="M451.924 128.074V38.8594H472.881V52.8307H473.301C477.93 43.2359 487.02 37.0077 500.571 37.0077C520.181 37.0077 531.375 49.6324 531.375 70.3369V128.074H510.418V74.5452C510.418 61.8363 504.526 54.6823 492.575 54.6823C480.54 54.6823 472.881 63.4354 472.881 76.3126V128.074H451.924Z" fill="#FF9D00"/>
<path d="M579.82 159.299C556.17 159.299 541.273 148.526 538.748 134.555L538.579 133.797H559.2L559.452 134.47C561.725 139.604 568.879 143.476 579.82 143.476C593.455 143.476 600.945 136.238 600.945 124.876V111.998H600.525C595.559 121.509 585.459 127.569 572.666 127.569C550.278 127.569 535.886 110.399 535.886 82.625V82.5408C535.886 54.3456 550.447 37.0077 573.003 37.0077C585.627 37.0077 595.391 43.7409 600.44 54.009H600.945V38.8594H621.902V125.549C621.902 145.748 605.659 159.299 579.82 159.299ZM579.231 111.409C592.276 111.409 601.03 100.384 601.03 83.0458V82.9616C601.03 65.7079 592.192 54.6823 579.231 54.6823C565.765 54.6823 557.264 65.5395 557.264 82.8774V82.9616C557.264 100.552 565.765 111.409 579.231 111.409Z" fill="#FF9D00"/>
<path d="M0.902344 285.085V166.412H21.8593V181.815H22.2801C27.4142 171.126 37.1773 164.561 49.9703 164.561C72.6106 164.561 86.9186 182.235 86.9186 211.02V211.104C86.9186 239.72 72.6106 257.394 50.2228 257.394C37.5139 257.394 27.33 250.998 22.2801 240.561H21.8593V285.085H0.902344ZM43.7421 239.72C57.1243 239.72 65.5407 228.694 65.5407 211.104V211.02C65.5407 193.177 57.1243 182.235 43.7421 182.235C30.7808 182.235 21.691 193.513 21.691 211.02V211.104C21.691 228.526 30.7808 239.72 43.7421 239.72Z" fill="#FF9D00"/>
<path d="M91.7664 255.627V166.412H112.723V181.815H113.144C115.922 171.042 123.328 164.561 133.596 164.561C136.205 164.561 138.646 164.982 140.245 165.403V184.34C138.478 183.666 135.28 183.161 131.745 183.161C119.877 183.161 112.723 190.652 112.723 203.866V255.627H91.7664Z" fill="#FF9D00"/>
<path d="M178.506 257.394C152.247 257.394 135.33 239.888 135.33 211.02V210.851C135.33 182.235 152.5 164.561 178.422 164.561C204.429 164.561 221.683 182.067 221.683 210.851V211.02C221.683 239.972 204.682 257.394 178.506 257.394ZM178.591 240.477C191.804 240.477 200.305 229.704 200.305 211.02V210.851C200.305 192.251 191.72 181.562 178.422 181.562C165.377 181.562 156.708 192.335 156.708 210.851V211.02C156.708 229.788 165.208 240.477 178.591 240.477Z" fill="#FF9D00"/>
<path d="M259.692 257.394C237.136 257.394 222.828 239.72 222.828 211.02V210.936C222.828 182.151 237.22 164.561 259.607 164.561C272.232 164.561 282.416 171.042 287.466 181.73H287.971V134.177H308.928V255.627H287.971V240.477H287.466C282.416 250.998 272.569 257.394 259.692 257.394ZM266.004 239.72C278.965 239.72 287.971 228.526 287.971 211.02V210.936C287.971 193.513 278.881 182.235 266.004 182.235C252.622 182.235 244.205 193.177 244.205 210.936V211.02C244.205 228.778 252.538 239.72 266.004 239.72Z" fill="#FF9D00"/>
<path d="M348.283 257.394C328.673 257.394 317.479 244.77 317.479 224.065V166.412H338.436V219.941C338.436 232.566 344.328 239.72 356.279 239.72C368.314 239.72 375.973 231.051 375.973 218.09V166.412H396.93V255.627H375.973V241.656H375.553C370.924 251.166 361.75 257.394 348.283 257.394Z" fill="#FF9D00"/>
<path d="M444.955 257.394C418.443 257.394 401.862 239.552 401.862 210.936V210.851C401.862 182.404 418.695 164.561 444.702 164.561C468.184 164.561 482.829 179.458 484.091 197.301L484.175 197.974H464.397L464.228 197.217C462.461 188.548 456.064 181.562 444.955 181.562C431.741 181.562 423.24 192.756 423.24 211.02V211.104C423.24 229.704 431.825 240.477 445.039 240.477C455.644 240.477 462.377 234.165 464.313 224.823L464.481 224.065H484.26L484.175 224.654C482.576 243.255 467.511 257.394 444.955 257.394Z" fill="#FF9D00"/>
<path d="M521.342 257.394C502.658 257.394 493.821 249.82 493.821 231.472V182.572H481.196V166.412H493.821V143.772H515.114V166.412H531.695V182.572H515.114V229.704C515.114 238.457 518.986 241.235 526.645 241.235C528.665 241.235 530.264 240.982 531.695 240.898V256.637C529.254 256.974 525.551 257.394 521.342 257.394Z" fill="#FF9D00"/>
<path d="M572.313 257.394C548.915 257.394 535.533 246.285 533.681 229.704L533.597 228.947H554.217L554.386 229.704C555.985 237.363 561.792 241.908 572.397 241.908C582.581 241.908 588.725 237.784 588.725 231.219V231.135C588.725 225.749 585.611 222.719 576.352 220.614L561.54 217.332C544.454 213.545 535.869 205.212 535.869 191.999V191.914C535.869 175.586 550.093 164.561 571.639 164.561C593.859 164.561 606.82 176.765 607.578 192.167L607.662 193.093H588.136L588.051 192.419C587.126 185.265 581.402 180.047 571.639 180.047C562.381 180.047 556.574 184.34 556.574 190.904V190.989C556.574 196.123 560.025 199.489 569.283 201.593L584.18 204.876C602.612 209 609.766 216.238 609.766 229.199V229.283C609.766 246.116 594.195 257.394 572.313 257.394Z" fill="#FF9D00"/>
<path d="M193.954 4.75284V22.584H192.015V0.723043H194.454L199.711 14.7819H199.878L205.104 0.723043H207.559V22.584H205.62V4.75284H205.468L200.681 17.4482H198.893L194.106 4.75284H193.954Z" fill="white"/>
<path d="M234.38 22.584L232.244 15.8878H224.305L222.169 22.584H220.048L227.259 0.723043H229.289L236.501 22.584H234.38ZM228.259 3.43483L224.866 14.1002H231.683L228.289 3.43483H228.259Z" fill="white"/>
<path d="M249.808 0.723043H255.61C261.822 0.723043 264.927 4.35895 264.927 11.6611C264.927 18.948 261.822 22.584 255.61 22.584H249.808V0.723043ZM251.884 2.6016V20.7054H255.489C260.443 20.7054 262.806 17.7967 262.806 11.6611C262.806 5.52547 260.443 2.6016 255.489 2.6016H251.884Z" fill="white"/>
<path d="M291.9 20.7054V22.584H279.326V0.723043H291.9V2.6016H281.401V10.4643H291.339V12.3125H281.401V20.7054H291.9Z" fill="white"/>
<path d="M347.647 22.584H336.8V20.7963H341.194V2.5107H336.8V0.723043H347.647V2.5107H343.254V20.7963H347.647V22.584Z" fill="white"/>
<path d="M365.515 22.584H363.576V0.723043H365.681L375.71 18.8723H375.907V0.723043H377.847V22.584H375.786L365.712 4.41955H365.515V22.584Z" fill="white"/>
<path d="M497.821 22.584H495.745V12.3277H485.747V22.584H483.671V0.723043H485.747V10.4491H495.745V0.723043H497.821V22.584Z" fill="white"/>
<path d="M527.096 13.4639C527.096 19.4934 524.096 23.0384 519.233 23.0384C514.37 23.0384 511.371 19.4934 511.371 13.4639V9.84312C511.371 3.81357 514.37 0.268555 519.233 0.268555C524.096 0.268555 527.096 3.81357 527.096 9.84312V13.4639ZM519.233 21.1144C522.809 21.1144 525.02 18.3118 525.02 13.4639V9.84312C525.02 4.99524 522.809 2.19256 519.233 2.19256C515.658 2.19256 513.446 4.99524 513.446 9.84312V13.4639C513.446 18.3118 515.658 21.1144 519.233 21.1144Z" fill="white"/>
<path d="M547.721 21.1296C551.175 21.1296 553.205 18.8268 553.205 14.9334V0.723043H555.265V15.0697C555.265 20.0388 552.432 23.0384 547.721 23.0384C543.009 23.0384 540.176 20.0388 540.176 15.0697V0.723043H542.237V14.9334C542.237 18.8268 544.267 21.1296 547.721 21.1296Z" fill="white"/>
<path d="M568.967 16.9028H571.042C571.33 19.5237 573.405 21.1447 576.466 21.1447C579.586 21.1447 581.632 19.448 581.632 16.8574C581.632 14.7667 580.253 13.4639 577.132 12.6609L575.42 12.2216C571.315 11.146 569.512 9.28258 569.512 6.14661C569.512 2.58645 572.254 0.268555 576.466 0.268555C580.435 0.268555 583.162 2.55615 583.374 6.07086H581.298C580.995 3.60147 579.208 2.16226 576.466 2.16226C573.436 2.16226 571.633 3.64692 571.633 6.14661C571.633 8.19181 572.936 9.40378 575.966 10.1916L577.738 10.6612C581.995 11.7671 583.753 13.5851 583.753 16.8574C583.753 20.5842 580.859 23.0384 576.466 23.0384C572.118 23.0384 569.224 20.6751 568.967 16.9028Z" fill="white"/>
<path d="M611.346 20.7054V22.584H598.772V0.723043H611.346V2.6016H600.847V10.4643H610.786V12.3125H600.847V20.7054H611.346Z" fill="white"/>
</svg>
