<svg width="150" height="150" viewBox="0 0 150 150" fill="none" xmlns="http://www.w3.org/2000/svg">
<path fill-rule="evenodd" clip-rule="evenodd" d="M54.6244 96.109L43.1881 74.699L53.4302 54.7168H39.9209L32.8821 72.3382H32.6944V72.4477L32.8195 72.3382V54.7168H20V96.109H32.8195V77.115H32.9453H32.8821L40.8629 96.109H54.6244Z" fill="black"/>
<path fill-rule="evenodd" clip-rule="evenodd" d="M94.699 96.1088L104.25 54.7166H91.7454L88.9176 71.4054C88.3518 74.6444 88.226 77.829 87.8492 80.4083H87.7247C87.2209 77.389 86.8434 74.4248 86.2783 71.4054L83.0105 54.7166H72.0135L68.6832 71.4054C68.056 74.4805 67.9928 77.4998 67.6154 80.5729H67.4896C67.0502 77.4998 66.6734 74.4798 66.1708 71.4054L63.3424 54.7166H50.7119L61.2682 96.1088H73.7097L76.4129 79.3098C76.9787 75.9613 77.1039 73.0522 77.4175 70.1968H77.5433C77.9833 73.0522 78.1704 75.9613 78.8621 79.3098L82.3189 96.1088H94.699ZM129.434 54.9883C127.361 54.2748 125.161 54 122.899 54C116.678 54 102.099 57.1295 102.099 75.6853C102.099 89.8511 111.022 96.8223 121.516 96.8223C124.344 96.8223 126.668 96.3285 129.246 95.3396L130 83.7556C127.926 85.4035 126.103 86.3912 123.213 86.3912C116.804 86.3912 115.169 80.2424 115.169 75.4112C115.169 70.854 116.803 64.4299 123.463 64.4299C126.103 64.4299 127.612 65.3086 129.434 66.8458V54.9883Z" fill="black"/>
</svg>
