<svg width="150" height="150" viewBox="0 0 150 150" fill="none" xmlns="http://www.w3.org/2000/svg">
<path fill-rule="evenodd" clip-rule="evenodd" d="M42.0212 80.3225C41.1121 80.3225 40.4771 80.1681 40.1167 79.8575C39.7562 79.5469 39.5752 78.9451 39.5752 78.0493V67.0539C39.5752 66.1161 39.7557 65.4594 40.1167 65.0841C40.4776 64.7087 41.1271 64.521 42.0649 64.521H45.0086C46.4376 64.521 47.6495 64.8167 48.645 65.4085C49.8569 66.1155 50.4631 67.1331 50.4631 68.4607C50.4631 70.1781 49.8425 71.3397 48.6018 71.9459V72.0107C49.5253 72.2991 50.1891 72.7216 50.5932 73.2769C50.9974 73.8322 51.1995 74.5934 51.1995 75.5607C51.1995 77.1623 50.6442 78.382 49.5325 79.2186C48.5514 79.9549 47.231 80.3225 45.5711 80.3225H42.0212ZM43.1683 73.5044V77.2271H44.9649C45.73 77.2271 46.2997 77.1264 46.6751 76.9243C47.1656 76.6508 47.4109 76.1597 47.4109 75.4527C47.4109 74.63 47.1728 74.0819 46.6967 73.8078C46.3507 73.6057 45.7516 73.505 44.9001 73.505L43.1683 73.5044ZM43.1683 67.5948V70.6903H44.7268C45.4338 70.6903 45.9316 70.6039 46.22 70.4306C46.6242 70.1997 46.8263 69.7668 46.8263 69.1318C46.8263 68.107 46.1264 67.5948 44.7268 67.5948H43.1683ZM56.4159 71.6857H58.0829C59.6126 71.6857 60.3772 71.0291 60.3772 69.7158C60.3772 68.4602 59.627 67.8329 58.1261 67.8329H56.4159V71.6857ZM56.4159 74.0669V77.9635C56.4159 79.6665 55.8169 80.5174 54.6193 80.5174C53.4218 80.5174 52.8228 79.6665 52.8228 77.9635V67.0539C52.8228 66.1161 53.0032 65.4594 53.3642 65.0841C53.7252 64.7087 54.3741 64.521 55.3125 64.521H58.1051C59.8368 64.521 61.2365 64.8964 62.3044 65.6466C63.5164 66.5125 64.1226 67.7825 64.1226 69.4567C64.1226 70.6255 63.7871 71.5816 63.1161 72.3246C62.4451 73.0682 61.5249 73.5332 60.3562 73.7209L63.1919 76.8811C63.8989 77.675 64.2527 78.3604 64.2527 78.9379C64.2527 79.429 64.0905 79.832 63.7655 80.1498C63.4411 80.4676 63.0336 80.6254 62.5425 80.6254C61.9363 80.6254 61.2946 80.2002 60.6164 79.3481L56.4159 74.0669ZM72.4123 64.521C74.1153 64.521 74.9668 65.0841 74.9668 66.2091C74.9668 67.3202 74.1153 67.8761 72.4123 67.8761H69.4686V70.6903H72.0009C73.7034 70.6903 74.5549 71.2456 74.5549 72.3573C74.5549 73.4684 73.7034 74.0237 72.0009 74.0237H69.4686V76.989H72.5208C74.2232 76.989 75.0747 77.5449 75.0747 78.6566C75.0747 79.7672 74.2232 80.3231 72.5208 80.3231H68.3214C67.4123 80.3231 66.7773 80.1686 66.4169 79.858C66.0559 79.5474 65.8754 78.9456 65.8754 78.0498V67.0539C65.8754 66.1161 66.0559 65.4594 66.4169 65.0841C66.7773 64.7087 67.4267 64.521 68.3652 64.521H72.4123ZM85.7899 75.3226H85.8719L87.9536 66.4477C88.0986 65.8271 88.4042 65.3183 88.8737 64.9213C89.3432 64.5243 89.8946 64.3261 90.5302 64.3261C91.2516 64.3261 91.8723 64.557 92.391 65.0187C92.9109 65.4805 93.2281 66.0723 93.3438 66.7937L95.0751 77.5737C95.1614 78.108 95.2046 78.511 95.2046 78.7856C95.2046 79.9394 94.6637 80.5169 93.5814 80.5169C92.9496 80.5169 92.4879 80.2716 92.1995 79.7816C91.9974 79.4638 91.8396 78.9373 91.7239 78.201L90.3558 69.5647H90.3127L88.2786 77.5521C88.0621 78.3737 87.8168 78.9667 87.5422 79.3265C87.1381 79.8314 86.5678 80.0845 85.8326 80.0845C85.0962 80.0845 84.5265 79.8314 84.1218 79.3265C83.8483 78.9805 83.6025 78.3892 83.3866 77.5521L81.3298 69.5647H81.2899L79.9446 78.201C79.8289 78.9512 79.67 79.4854 79.4679 79.8038C79.1651 80.2793 78.6956 80.5174 78.0611 80.5174C76.9787 80.5174 76.4378 79.94 76.4378 78.7862C76.4378 78.6134 76.4887 78.2087 76.589 77.5742L78.3202 66.7943C78.4359 66.0729 78.7504 65.481 79.2619 65.0193C79.7746 64.5576 80.3875 64.3267 81.1089 64.3267C81.7589 64.3267 82.3103 64.5216 82.7654 64.9113C83.2161 65.3011 83.5222 65.8132 83.6811 66.4482L85.7899 75.3226ZM103.647 64.3045C104.932 64.3045 105.82 64.9972 106.311 66.3824L110.293 77.7464C110.466 78.2375 110.553 78.6123 110.553 78.872C110.553 79.3631 110.38 79.76 110.033 80.0623C109.686 80.3652 109.268 80.5163 108.778 80.5163C107.868 80.5163 107.234 79.9466 106.873 78.8067L106.289 76.9448H100.703L100.053 78.9368C99.7074 79.9898 99.13 80.5169 98.3222 80.5169C97.8173 80.5169 97.4065 80.3624 97.0881 80.0518C96.7698 79.7412 96.6125 79.3337 96.6125 78.8288C96.6125 78.4534 96.6701 78.1074 96.7853 77.7896L100.898 66.642C101.476 65.0841 102.392 64.3045 103.647 64.3045ZM103.539 68.2227L101.743 73.7641H105.315L103.582 68.2227H103.539ZM44.837 92.9168V84.4859H46.6181V92.9168H44.837ZM47.753 90.6745L47.7132 90.0279C47.7132 89.0247 47.964 88.2114 48.4628 87.5874C49.0082 86.9092 49.7622 86.5709 50.7278 86.5709H51.0179C51.7016 86.5709 52.2758 86.8328 52.7419 87.3538C53.1621 87.8222 53.3731 88.3476 53.3731 88.9328V89.105H51.8295C51.8295 88.8907 51.7371 88.6842 51.5527 88.4888C51.324 88.2413 51.0295 88.1156 50.6691 88.1156C50.2732 88.1156 49.9588 88.3049 49.7257 88.6842C49.4926 89.0629 49.3763 89.5091 49.3763 90.0218C49.3763 90.5334 49.4926 90.9779 49.7257 91.3516C49.9588 91.7281 50.2998 91.9152 50.7483 91.9152C51.0212 91.9152 51.2388 91.8372 51.4016 91.6838C51.5643 91.5305 51.7072 91.2548 51.8301 90.8589H53.4794C53.3122 91.5897 53.0437 92.1434 52.6744 92.522C52.1816 93.0225 51.478 93.2733 50.5633 93.2733C49.8508 93.2733 49.2529 93.058 48.769 92.6267C48.2497 92.1688 47.9108 91.5188 47.753 90.6745ZM54.0723 90.3966V90.0938C54.0723 89.1791 54.2921 88.4002 54.7317 87.758C55.2682 86.9751 56.0466 86.5837 57.067 86.5837C58.0082 86.5837 58.7423 86.9219 59.2699 87.6002C59.7184 88.1809 59.9426 88.8935 59.9426 89.7367C59.9426 89.8684 59.9382 89.9747 59.9293 90.0534C59.9204 90.132 59.9027 90.2471 59.8767 90.3961H55.8008C55.8008 90.8894 55.9375 91.2608 56.2099 91.5111C56.4474 91.7276 56.7464 91.8344 57.1068 91.8344C57.3792 91.8344 57.6239 91.7752 57.8393 91.6573C58.0547 91.5382 58.1848 91.3915 58.2285 91.2149H59.8778C59.8778 91.6368 59.5877 92.0769 59.0069 92.5342C58.3736 93.0275 57.7009 93.2728 56.9884 93.2728C56.1441 93.2728 55.4537 92.9744 54.9166 92.3764C54.4422 91.8488 54.1604 91.1889 54.0723 90.3966ZM56.9884 88.1278C56.7154 88.1278 56.4674 88.2308 56.2426 88.4384C56.0192 88.6436 55.8648 88.9131 55.8008 89.2096H58.2285C58.198 89.0411 58.1354 88.88 58.0442 88.7351C57.9707 88.6138 57.8868 88.4991 57.7934 88.3924C57.5204 88.2153 57.2519 88.1278 56.9884 88.1278ZM67.4245 92.9168H65.7226V84.4859H68.2422L69.7731 90.8744L71.3426 84.4859H73.8628V92.9168H72.1344V86.2149L70.67 92.9168H68.8883L67.4245 86.2149V92.9168ZM75.3405 91.5709V91.4391C75.3405 90.4453 75.6721 89.7859 76.3359 89.4604C76.5319 89.3641 77.1526 89.2412 78.1967 89.0917C78.8694 88.9942 79.2055 88.7307 79.2055 88.2989C79.1711 88.1494 79.0521 88.0243 78.8517 87.9235C78.6465 87.8206 78.4196 87.7684 78.1901 87.7712C77.8861 87.7712 77.6331 87.8438 77.4288 87.9899C77.2245 88.135 77.1205 88.3476 77.1205 88.6299V88.775H75.4983C75.4983 87.965 75.7159 87.3798 76.1516 87.0199C76.5862 86.659 77.2522 86.479 78.1497 86.479C78.9414 86.479 79.5476 86.6241 79.9706 86.9136C80.4982 87.2746 80.7623 87.8726 80.7623 88.7086V91.479C80.7623 92.1129 80.8897 92.4988 81.1449 92.6405V92.9173H79.3112C79.2646 92.8339 79.2227 92.748 79.1855 92.6599C79.1516 92.5694 79.1358 92.4731 79.139 92.3764C78.9453 92.6306 78.6646 92.8404 78.2947 93.0026C77.938 93.163 77.5514 93.2462 77.1603 93.2468C76.6858 93.2468 76.2944 93.1233 75.986 92.8769C75.6267 92.5874 75.4103 92.1517 75.3405 91.5709ZM77.0418 91.2941C77.1122 91.6368 77.3585 91.8089 77.7804 91.8089C77.9836 91.8089 78.1923 91.7536 78.4077 91.6434C78.623 91.5343 78.8057 91.3732 78.9547 91.1623C79.0521 91.066 79.118 90.9386 79.1523 90.7797C79.1878 90.6219 79.2055 90.4326 79.2055 90.2134V89.9227C79.0997 90.1519 78.7111 90.3075 78.0378 90.3911C77.3652 90.4752 77.0291 90.7017 77.0291 91.0715L77.0418 91.2941ZM82.4249 92.9168V84.4859H84.0222V89.0933L86.1061 86.6496H88.0189L85.8558 89.1044L88.1119 92.9168H86.2118L84.6948 90.3966L84.0222 91.004V92.9168H82.4249ZM88.6794 90.3966V90.0938C88.6794 89.1791 88.8986 88.4002 89.3388 87.758C89.8753 86.9751 90.6537 86.5837 91.6735 86.5837C92.6152 86.5837 93.3494 86.9219 93.877 87.6002C94.326 88.1809 94.5497 88.8935 94.5497 89.7367C94.5497 89.8684 94.5452 89.9747 94.5369 90.0534C94.5286 90.132 94.5098 90.2471 94.4838 90.3961H90.4073C90.4073 90.8894 90.5435 91.2608 90.8159 91.5111C91.054 91.7276 91.3524 91.8344 91.7134 91.8344C91.9858 91.8344 92.2305 91.7752 92.4453 91.6573C92.6606 91.5382 92.7902 91.3915 92.8345 91.2149H94.4838C94.4838 91.6368 94.1942 92.0769 93.6135 92.5342C92.9795 93.0275 92.3074 93.2728 91.5949 93.2728C90.7506 93.2728 90.0607 92.9744 89.5232 92.3764C89.0481 91.8488 88.7669 91.1889 88.6794 90.3966ZM91.5949 88.1278C91.3225 88.1278 91.0739 88.2308 90.8497 88.4384C90.6259 88.6434 90.4714 88.9129 90.4073 89.2096H92.835C92.8044 89.0411 92.7416 88.88 92.6501 88.7351C92.5767 88.6138 92.4928 88.4991 92.3993 88.3924C92.1264 88.2153 91.8584 88.1278 91.5949 88.1278ZM95.4864 92.9168V86.6496H97.1097V87.6528C97.2415 87.3793 97.4441 87.1334 97.7165 86.9131C98.042 86.649 98.3632 86.5172 98.6798 86.5172C98.7762 86.5172 98.8908 86.5399 99.0226 86.5831V88.1931C98.3454 88.1931 97.8798 88.2806 97.6246 88.4572C97.2819 88.6942 97.1097 89.1515 97.1097 89.8297V92.9168H95.4864ZM99.8669 91.004H101.595C101.595 91.2763 101.743 91.4917 102.035 91.6506C102.33 91.8084 102.667 91.8876 103.049 91.8876C103.309 91.8876 103.52 91.8549 103.682 91.789C103.848 91.7231 103.952 91.6107 103.996 91.453V91.268C103.996 90.9956 103.662 90.7664 102.994 90.5815C102 90.3091 101.379 90.1071 101.133 89.9747C100.465 89.6149 100.13 89.0817 100.13 88.3786C100.184 87.8238 100.46 87.387 100.962 87.0659C101.462 86.7448 102.035 86.5837 102.677 86.5837C103.609 86.5837 104.318 86.8129 104.801 87.2702C105.188 87.6301 105.382 88.0575 105.382 88.5497V88.7744H103.839C103.839 88.5009 103.741 88.3038 103.548 88.1809C103.355 88.058 103.108 87.996 102.809 87.996C102.528 87.996 102.284 88.0425 102.078 88.1344C101.871 88.2263 101.767 88.3559 101.767 88.5236C101.767 88.6028 101.807 88.6903 101.886 88.7877C102.105 88.8935 102.616 89.0601 103.416 89.2893C104.648 89.632 105.347 90.0666 105.514 90.5943C105.549 90.6828 105.58 90.7997 105.607 90.9447C105.633 91.0898 105.646 91.2066 105.646 91.2941C105.646 91.8488 105.43 92.305 104.999 92.6665C104.516 93.0707 103.839 93.2733 102.967 93.2733H102.783C102.027 93.2733 101.367 93.0796 100.804 92.6926C100.179 92.2618 99.8669 91.6982 99.8669 91.004ZM111.725 63.5571C112.085 63.5571 112.436 63.6496 112.779 63.834C113.118 64.0149 113.397 64.2908 113.581 64.6279C113.773 64.9717 113.869 65.331 113.869 65.7047C113.869 66.0745 113.775 66.43 113.586 66.7705C113.402 67.1059 113.127 67.3819 112.792 67.5655C112.466 67.7506 112.099 67.8483 111.724 67.849C111.352 67.849 110.996 67.7548 110.656 67.5655C110.32 67.3821 110.044 67.1061 109.861 66.7705C109.675 66.4459 109.577 66.0786 109.576 65.7047C109.576 65.331 109.671 64.9717 109.864 64.6279C110.049 64.2908 110.329 64.015 110.668 63.834C110.992 63.6547 111.355 63.5595 111.725 63.5571ZM111.725 63.9126C111.422 63.9126 111.129 63.9901 110.843 64.1445C110.558 64.299 110.335 64.5205 110.174 64.8067C110.016 65.0801 109.933 65.3898 109.932 65.7053C109.932 66.0136 110.012 66.3098 110.17 66.5933C110.324 66.8727 110.554 67.1026 110.833 67.2566C111.118 67.4149 111.414 67.4946 111.724 67.4946C112.036 67.4936 112.343 67.4115 112.614 67.2566C112.893 67.1032 113.123 66.873 113.276 66.5933C113.43 66.3227 113.511 66.0167 113.511 65.7053C113.511 65.3936 113.432 65.0946 113.272 64.8067C113.111 64.5205 112.889 64.299 112.602 64.1445C112.315 63.9901 112.023 63.9126 111.725 63.9126ZM110.783 66.8901V64.5814H111.576C111.848 64.5814 112.044 64.6019 112.165 64.6445C112.286 64.6871 112.382 64.7619 112.456 64.8676C112.527 64.9745 112.562 65.0868 112.562 65.2064C112.562 65.3753 112.502 65.522 112.382 65.6471C112.262 65.7728 112.102 65.8426 111.903 65.8581C111.984 65.8924 112.05 65.9328 112.099 65.9804C112.192 66.0718 112.306 66.224 112.441 66.4388L112.722 66.8901H112.267L112.062 66.5258C111.901 66.2406 111.772 66.0613 111.673 65.9893C111.605 65.9361 111.506 65.9096 111.374 65.9096H111.155V66.8901H110.783ZM111.155 65.5912H111.608C111.823 65.5912 111.97 65.558 112.049 65.4943C112.128 65.4307 112.168 65.3448 112.168 65.238C112.169 65.1722 112.149 65.1079 112.111 65.0542C112.071 64.9994 112.016 64.9575 111.953 64.934C111.886 64.9069 111.761 64.8942 111.579 64.8942H111.155V65.5912H111.155Z" fill="black"/>
<path fill-rule="evenodd" clip-rule="evenodd" d="M42.267 55H107.732C117.23 55 125 62.7704 125 72.267C125 81.6308 117.447 89.3148 108.133 89.529V95.8405H41.8667V89.529C32.5528 89.3148 25 81.6308 25 72.267C25 62.7704 32.7704 55 42.267 55ZM42.4442 95.3079H107.556V86.6324H107.716C115.434 86.6324 121.751 80.168 121.751 72.2676C121.751 64.3671 115.435 57.9033 107.716 57.9033H42.2842C34.5653 57.9033 28.2493 64.3671 28.2493 72.2676C28.2493 80.1686 34.5653 86.6324 42.2842 86.6324H42.4447L42.4442 95.3079Z" fill="black"/>
</svg>
