<svg width="147" height="147" viewBox="0 0 147 147" fill="none" xmlns="http://www.w3.org/2000/svg">
<path fill-rule="evenodd" clip-rule="evenodd" d="M51.1296 67.4208C50.9657 67.3389 48.18 67.216 47.9752 67.134C47.6475 67.134 47.4426 67.134 47.3607 66.9702C47.2788 66.8882 47.2788 66.7653 47.2788 66.6015C47.2788 66.4376 47.3607 66.1508 47.9752 66.2328L52.9321 66.3147V64.717H47.5246C47.4426 64.717 46.3775 64.6351 45.722 65.2496C45.3943 65.5363 45.1895 65.987 45.1895 66.6015C45.1895 67.3389 45.3943 67.8709 45.722 68.2401C46.2956 68.6913 46.9101 68.6913 47.1968 68.6913L50.4332 68.8546C50.5151 68.8546 50.7609 68.8546 50.9657 69.0179C51.0253 69.1012 51.0543 69.2025 51.0477 69.3047C51.0477 69.4691 51.0477 69.5926 50.9657 69.6734C50.7609 69.7559 50.679 69.7559 50.679 69.7559H45.5582V71.2717H51.2115C51.6622 71.1892 53.2189 70.8205 53.137 69.2233C53.137 67.6666 51.7851 67.4208 51.1296 67.4208ZM116.39 71.2717C116.923 71.1892 118.356 70.8205 118.356 69.2233C118.274 67.666 116.922 67.4208 116.39 67.4208H116.308C116.226 67.3389 113.44 67.216 113.153 67.134C112.866 67.134 112.621 67.134 112.539 66.9702C112.416 66.8882 112.416 66.7653 112.416 66.6015C112.416 66.4376 112.621 66.1508 113.234 66.2328L118.192 66.3147V64.717H112.702C112.702 64.717 111.637 64.6351 110.9 65.2496C110.531 65.5363 110.367 65.987 110.449 66.6015C110.449 67.3389 110.613 67.8709 110.982 68.2401C111.433 68.6913 112.17 68.6913 112.334 68.6913C112.416 68.6913 115.693 68.8546 115.693 68.8546C115.693 68.8546 116.021 68.8546 116.226 69.0179C116.226 69.1414 116.308 69.2233 116.308 69.3047C116.309 69.3785 116.29 69.4513 116.254 69.5159C116.219 69.5805 116.167 69.6347 116.104 69.6734C116.021 69.7559 115.857 69.7559 115.857 69.7559H110.737V71.2717H116.39ZM125.116 71.2717C125.567 71.1892 127 70.8205 127 69.2233C126.918 67.666 125.567 67.4208 125.034 67.4208H124.952C124.87 67.3389 122.043 67.216 121.798 67.134C121.511 67.134 121.264 67.134 121.183 66.9702C121.06 66.8882 121.06 66.7653 121.06 66.6015C121.183 66.4376 121.264 66.1508 121.879 66.2328L126.836 66.3147V64.717H121.347C121.347 64.717 120.282 64.6351 119.544 65.2496C119.176 65.5363 119.094 65.987 119.094 66.6015C119.094 67.3389 119.257 67.8709 119.626 68.2401C120.077 68.6913 120.814 68.6913 120.978 68.6913C121.06 68.6913 124.297 68.8546 124.297 68.8546C124.297 68.8546 124.665 68.8546 124.87 69.0179C124.87 69.1414 124.953 69.2233 124.953 69.3047C124.953 69.3786 124.934 69.4513 124.899 69.5159C124.863 69.5805 124.811 69.6348 124.748 69.6734C124.666 69.7559 124.502 69.7559 124.502 69.7559H119.381V71.2717H125.116ZM53.7515 68.1167C53.7515 68.8546 53.7515 69.4691 54.0382 70.2071C54.284 70.8205 55.4721 71.2717 56.1685 71.2717H61.5761V69.7559C60.9616 69.7559 56.6191 69.6734 56.6191 69.6734C55.6359 69.6734 55.7179 68.6908 55.7179 68.5679V67.216C55.7179 67.216 55.7998 66.7653 56.0046 66.6015C56.2504 66.2328 56.824 66.2328 56.9059 66.2328L61.5761 66.3147V64.717H56.2504C56.2504 64.717 54.8166 64.717 54.284 65.3315C53.9153 65.7002 53.7515 66.6015 53.7515 67.7895V68.1167ZM68.5814 67.134H64.5667V64.717H62.6412V71.2717H64.5667V68.8546H68.5814V71.2717H70.5888V64.717H68.5814V67.134ZM77.5941 71.2717C79.4785 71.2717 79.5605 69.2233 79.5605 69.2233V64.717H77.676V68.6913C77.676 69.3872 76.979 69.5926 76.979 69.5926H74.4391C73.6197 69.3872 73.6197 68.6913 73.6197 68.5679V64.717H71.6533V68.9371C71.7353 70.9439 73.6197 71.2722 73.8246 71.2722C73.8251 71.2717 75.8735 71.3542 77.5941 71.2717ZM86.6887 69.5926H82.633V64.717H80.7485V71.2717H86.6887V69.5926ZM85.7055 64.717V66.4376H88.3273V71.2717H90.2937V66.4376H92.9162V64.717H85.7055ZM109.63 69.7559H104.796V68.6913H109.303V67.3389H104.878V66.3147H109.63V64.717H102.911V71.2717H109.63V69.7559ZM99.9209 71.2717H101.805V64.717H99.8395V67.134H95.7832V64.717H93.8988V71.2717H95.7832V68.8546H99.9209V71.2717Z" fill="black"/>
<path fill-rule="evenodd" clip-rule="evenodd" d="M27.3689 70.2069C26.7544 68.8545 27.4509 67.2158 28.9257 66.6013C30.3595 66.0687 32.0391 66.7652 32.6127 68.1165C33.3091 69.8377 35.3165 70.657 36.9961 69.919C37.8149 69.6732 38.4299 69.0178 38.7986 68.3219C38.7161 70.4931 37.2829 72.5415 35.0297 73.4427C32.0391 74.6308 28.6389 73.2783 27.3689 70.2877V70.2069Z" fill="black"/>
<path fill-rule="evenodd" clip-rule="evenodd" d="M38.4297 65.6181C39.0032 66.97 38.1839 68.772 36.832 69.2232C35.3982 69.8377 33.7595 69.1407 33.145 67.6659C32.4076 66.0682 30.5237 65.2489 28.8025 65.8634C28.0368 66.2347 27.4065 66.8364 27 67.584C27.1229 65.3308 28.4748 63.2825 30.687 62.4631C33.7595 61.1937 37.2007 62.6276 38.4297 65.6181Z" fill="black"/>
</svg>
