<svg width="150" height="150" viewBox="0 0 150 150" fill="none" xmlns="http://www.w3.org/2000/svg">
<path fill-rule="evenodd" clip-rule="evenodd" d="M25 63.5286H50.0186V71.0871H36.4134V73.808H50.0186V80.3082H36.4134V86.4306H25V63.5286ZM52.5131 78.6462C52.5131 84.7685 56.4437 86.3555 64.0022 86.3555H67.9328C73.0725 86.3555 78.6657 84.7685 78.6657 78.6462V66.7036H67.9328V78.6462C67.9328 81.7443 63.1709 81.5936 63.1709 78.5705V66.6279H52.5137L52.5131 78.6462ZM93.1779 86.5068C106.253 87.036 106.027 73.4308 96.655 73.4308H91.9688C89.9273 73.4308 90.0029 71.7682 91.9688 71.7682C91.9688 71.7682 97.1085 71.466 102.022 71.9195V66.5528C101.266 66.4014 95.2183 65.8723 89.9273 65.8723L86.6021 66.1744C78.2874 66.1744 77.3804 78.9489 87.282 79.3267H91.4396C94.9913 79.478 94.3113 81.4428 91.7418 81.2158C87.2063 81.3671 83.8806 80.6115 80.7818 79.7045V85.1464C83.8806 86.809 93.1779 86.5068 93.1779 86.5068ZM103.987 74.3378H107.389V82.8795C107.54 85.0712 109.202 86.5068 112.604 86.5068H115.476C117.064 86.3555 120.087 86.2804 122.808 85.5998L123.866 80.6109H120.691C119.784 80.6109 117.971 81.0644 117.971 79.3261V74.2621H125V66.7793H117.744V63H111.546C110.562 64.814 106.33 68.5175 104.137 70.332L103.987 74.3378Z" fill="black"/>
<path fill-rule="evenodd" clip-rule="evenodd" d="M27.4189 85.5245V83.7863C27.4189 82.4247 28.5529 82.1237 29.3086 82.1237C30.2161 82.1237 31.4252 82.5015 31.4252 83.7863V85.5245H27.4189ZM30.7447 84.6932V83.8619C30.7447 83.182 30.0642 82.955 29.3842 82.955C28.1751 82.955 28.0995 83.5592 28.0995 83.9376V84.6932H30.7447ZM28.4773 80.7626H31.4252V81.5183H28.4773V80.7626ZM27.4189 80.7626H28.0995V81.5183H27.4189V80.7626ZM28.8551 79.3265V79.2508C28.6286 79.1751 28.4016 78.9487 28.4016 78.4195C28.4016 77.7396 28.8551 77.1347 29.9134 77.1347C30.7447 77.1347 31.5009 77.5126 31.5009 78.4195C31.5009 78.9487 31.1988 79.1751 31.0474 79.2508H32.5592V80.0065H28.4778V79.3265H28.8551ZM30.8204 78.6466C30.8204 78.1174 30.2912 77.9666 29.9891 77.9666C29.4599 77.9666 29.0821 78.118 29.0821 78.6466C29.0821 79.1751 29.5356 79.3265 29.9891 79.3265C30.4426 79.3265 30.8204 79.1 30.8204 78.6466ZM27.4189 75.8494H31.4247V76.605H27.4189V75.8494ZM30.5934 74.2625H31.4247V75.0938H30.5934V74.2625ZM27.4189 72.6755H31.4247V73.5063H27.4189V72.6755ZM31.4247 69.3492V70.1054H29.6107C29.3842 70.1054 29.0059 70.1054 29.0059 70.6346C29.0059 70.9367 29.308 71.2388 29.6864 71.2388H31.4247V71.995H28.4767V71.2388H28.9302C28.7037 71.0875 28.401 70.9367 28.401 70.3319C28.401 69.727 28.7032 69.3492 29.3837 69.3492H31.4247ZM28.4773 65.8721H31.2739C31.803 65.8721 32.6343 65.9478 32.6343 67.3839C32.6343 67.9882 32.3316 68.593 31.7274 68.6687V67.8374C31.8787 67.7617 32.0301 67.686 32.0301 67.2325C32.0301 66.8547 31.803 66.6283 31.3496 66.6283H30.9717C31.1982 66.7796 31.4252 67.0061 31.4252 67.4596C31.4252 68.1395 30.9717 68.7444 29.9134 68.7444C28.8551 68.7444 28.4016 68.1401 28.4016 67.5353C28.4016 66.9304 28.7037 66.704 28.9308 66.6283H28.4773V65.8721ZM30.7447 67.3088C30.7447 66.7796 30.3663 66.6283 29.9134 66.6283C29.4599 66.6283 29.0821 66.8547 29.0821 67.3088C29.0821 67.6109 29.2335 67.9131 29.9891 67.9131C30.3669 67.9131 30.7447 67.7623 30.7447 67.3088ZM30.5934 64.3608H31.4247V65.1921H30.5934V64.3608Z" fill="white"/>
</svg>
