<svg width="150" height="150" viewBox="0 0 150 150" fill="none" xmlns="http://www.w3.org/2000/svg">
<path fill-rule="evenodd" clip-rule="evenodd" d="M69.4727 67.8913H67.3128L65.1523 75.1978H67.3128L69.4727 67.8913ZM70.1083 65.6045H68.0116L67.5666 67.0651H69.6633L70.1083 65.6045ZM124.238 67.7644C123.538 67.8276 123.221 67.8913 122.776 68.2088C122.523 68.3994 122.332 68.59 122.141 68.7806C121.951 68.9712 121.888 69.0987 121.696 69.4799L122.141 67.8913H120.299L118.139 75.1978H120.171L121.188 71.8305C121.633 70.3693 122.395 69.6705 123.602 69.6705H123.666L124.238 67.7644ZM80.8447 66.1763L80.4635 67.5738L80.4003 67.8913H79.3835L78.9391 69.2893H79.8928L79.8279 69.5431L78.1767 75.134H80.2091L81.9252 69.5431L81.9884 69.2893H83.4501L83.8308 67.8913H82.2427L82.3696 67.6369L82.7508 66.1763H80.8447Z" fill="#0C0E0F"/>
<path fill-rule="evenodd" clip-rule="evenodd" d="M25 77.9932H125V87.9671H25V77.9932Z" fill="black"/>
<path fill-rule="evenodd" clip-rule="evenodd" d="M66.2323 67.8917H64.0724L62.5475 70.6871L62.23 71.3227L61.9757 71.7671L61.7213 72.3389L61.5307 72.7839L61.4038 73.1014L61.2132 73.6732L61.2769 73.4195C61.2769 72.8476 61.3401 72.7202 61.3401 72.1489V71.4502V71.1958L61.2769 67.8922H58.6721L56.9566 71.0052C56.8928 71.1327 56.8291 71.3233 56.7028 71.6408L56.1309 72.7845L55.8766 73.3563L55.8134 73.6106V73.3563L55.8766 72.6576L55.9403 71.0058V67.8928H53.7804L54.2254 75.1993H56.5759L58.7358 71.1964L58.8633 71.0058L58.9907 70.6883L59.1813 70.3702L59.4988 69.7346L59.5626 69.4809V69.7346L59.6257 70.1159V71.2596L59.8163 75.1987H62.1669L66.2323 67.8917ZM73.1576 67.8917H71.1883L71.0614 68.5904L69.0915 75.1981H71.1883L72.332 71.5765C72.7132 70.2422 73.6025 69.4166 74.4919 69.4166C75 69.4166 75.3181 69.7341 75.3181 70.179C75.3181 70.3059 75.3181 70.5603 75.2543 70.6871L73.9838 75.1981H76.08L77.478 70.4965C77.5411 70.2428 77.606 69.8615 77.606 69.6078C77.606 68.5278 76.8424 67.8285 75.6356 67.8285C74.7462 67.8285 73.73 68.2097 72.9675 68.7816L72.9038 68.909L72.9675 68.7184L73.1576 67.8917ZM96.9826 67.7648C96.347 67.8279 96.0927 67.8917 95.7126 68.0823C95.4548 68.2147 95.2189 68.3861 95.0133 68.5904C94.8853 68.7178 94.8221 68.8447 94.6321 69.0353L94.4409 69.2891L94.3777 69.4797L94.8221 67.8911H92.9797L90.8192 75.1976H92.9166L93.9334 71.8303C94.3777 70.3053 95.077 69.6703 96.347 69.6703H96.4102L96.9826 67.7648ZM105.877 66.2399H103.717L101.049 75.1981H103.082L104.225 71.6402C104.67 70.179 105.432 69.3528 106.386 69.3528C106.894 69.3528 107.211 69.7341 107.211 70.2422C107.211 70.3691 107.148 70.5603 107.148 70.6871L105.75 75.1981H107.848L109.244 70.4965C109.373 70.1159 109.373 70.1159 109.436 69.9247C109.436 69.7341 109.499 69.6072 109.499 69.4803C109.499 68.5272 108.61 67.8285 107.402 67.8285C106.576 67.8285 105.75 68.1466 105.114 68.7178L104.924 68.9085L105.051 68.6541L105.432 67.4467L105.877 66.2399ZM114.327 75.1981H116.296L116.486 74.4357L118.457 67.8922H116.296L115.152 71.5139C114.771 72.7845 113.882 73.6738 113.055 73.6738C112.547 73.6738 112.166 73.3563 112.166 72.9119L112.229 72.8482V72.5938L112.293 72.3395L113.564 67.8922H111.466L110.068 72.5938C110.005 72.8482 109.942 73.2294 109.942 73.4832C109.942 74.5631 110.704 75.2619 111.975 75.2619C112.546 75.2619 112.991 75.135 113.5 74.8806C113.753 74.7538 113.944 74.6269 114.262 74.4357C114.644 74.1819 114.644 74.1819 114.771 73.8638L114.327 75.1981ZM25 63H125V64.2068H25V63ZM99.2694 66.1767L98.825 67.5742L98.7619 67.8917H97.7451L97.3638 69.2897H98.2526L98.1894 69.5435L96.5377 75.1344H98.6338L100.286 69.5435L100.35 69.2897H101.811L102.256 67.8917H100.667L100.731 67.6373L101.176 66.1767H99.2694ZM90.248 72.0852L90.3749 71.7671C90.5029 71.1321 90.566 70.6871 90.566 70.2422C90.566 68.7173 89.4861 67.7648 87.7068 67.7648C85.9919 67.7648 84.7207 68.4635 83.8951 69.9247C83.387 70.814 83.0695 71.9577 83.0695 72.8476C83.0695 74.4357 84.2132 75.3256 86.1825 75.3256C87.8986 75.3256 89.2955 74.4994 89.8679 73.0382H87.7706C87.5805 73.292 87.4536 73.4832 87.3262 73.6101C86.9449 73.9276 86.5637 74.055 86.1825 74.055C85.4832 74.055 85.0388 73.6101 85.0388 72.9113C85.0388 72.5933 85.0388 72.4027 85.1657 72.0852H90.248ZM88.5962 70.7509H85.5469L85.737 70.4328C86.1182 69.4797 86.7538 68.9716 87.5794 68.9716C88.2149 68.9716 88.6593 69.4166 88.6593 70.0516C88.6593 70.2422 88.6593 70.3059 88.5962 70.6234V70.7509Z" fill="#0C0E0F"/>
</svg>
