<svg width="150" height="150" viewBox="0 0 150 150" fill="none" xmlns="http://www.w3.org/2000/svg">
<path d="M60.0651 53.245C59.4986 53.3737 58.3143 53.5797 57.4132 53.7084C56.5378 53.8372 55.6367 54.0689 55.4564 54.2234C54.9673 54.6353 53.6027 57.3387 53.3967 58.2913C53.2422 58.9865 53.3195 59.1667 53.8602 59.5271C54.89 60.2223 57.6191 59.4499 59.3442 58.0081C60.1423 57.3387 62.511 53.7342 62.511 53.2192C62.511 52.9103 61.4811 52.936 60.0651 53.245ZM99.2255 61.0977C98.8135 61.2779 98.3243 61.4581 98.0926 61.4581C97.8867 61.4581 97.1143 61.6383 96.3934 61.8443C95.6725 62.0503 94.3851 62.4107 93.5355 62.6167C91.1411 63.2861 91.45 62.9772 89.4676 66.6074C88.9269 67.6115 88.8239 68.0235 89.0299 68.2809C89.4676 68.8216 89.0814 69.3623 86.1463 72.1429C81.4604 76.6228 79.2719 77.8586 78.8857 76.2881C78.8085 75.9276 78.8085 75.4385 78.8857 75.181C79.2462 74.0997 80.7137 71.2418 81.8723 69.3623C82.5417 68.2552 83.1082 67.2253 83.1082 67.0709C83.1082 66.7619 80.1473 66.9936 79.0917 67.3798C78.7313 67.5343 78.1134 67.6373 77.7272 67.6373C76.929 67.6373 76.2596 68.2809 75.4872 69.7742C73.7622 73.2243 69.3853 75.9534 67.5315 74.7433C66.2442 73.8937 66.5017 72.2459 68.4842 68.9761C69.823 66.7619 69.7972 66.6589 68.1752 67.1224C67.686 67.2768 66.4759 67.5085 65.4976 67.6373C64.0815 67.8175 63.5666 67.9977 62.9229 68.6156C61.6356 69.8257 59.5501 71.2675 55.9971 73.3787C51.8777 75.8504 50.7448 75.9791 52.3411 73.7907C52.9075 73.044 54.7613 70.0832 55.6882 68.4097C55.8426 68.1522 56.1258 67.766 56.3061 67.56C56.8982 66.8134 56.4091 66.6589 54.7355 67.0194C53.8344 67.2253 52.3669 67.5085 51.44 67.663C50.5131 67.8175 49.5862 68.075 49.3545 68.2552C49.1228 68.4097 48.3762 69.4653 47.7067 70.5724C44.3854 76.0306 42.7377 78.0904 39.0559 81.4374C35.4514 84.6557 30.5596 89.8565 27.9849 93.1263C24.5349 97.5032 24.3547 97.9152 26.0282 97.2972C26.5174 97.117 27.0581 96.9883 27.2898 96.9883C27.5215 96.9883 28.2681 96.8081 28.9376 96.6278C29.6327 96.4219 30.8943 96.0614 31.7439 95.8297C32.5936 95.598 33.8036 95.2375 34.4473 95.0573C35.091 94.8771 35.9406 94.6453 36.3268 94.5681C36.9962 94.4136 38.9529 92.6371 40.2403 91.0666C40.5235 90.7061 41.2186 89.8308 41.7851 89.1356C42.3515 88.4147 42.8664 87.7968 42.9694 87.7195C43.0466 87.6423 43.7418 86.7669 44.5399 85.7886C48.5306 80.7937 48.1959 81.1027 52.0836 79.0687C54.0661 78.0389 55.9456 77.0605 56.2803 76.9318C56.5893 76.7773 57.4647 76.2624 58.1856 75.7474C58.9322 75.2582 59.7561 74.8463 59.9878 74.8463C60.5028 74.8463 60.6057 75.6187 60.1938 76.0306C60.0393 76.1851 59.8591 77.0347 59.7818 77.9616C59.6016 79.9441 60.1166 81.1027 61.5069 81.8493C63.2576 82.8535 68.4069 81.8236 71.4708 79.8926C72.0629 79.5064 72.6551 79.2489 72.7838 79.3262C72.8868 79.4034 73.1443 79.9441 73.3245 80.5105C73.5305 81.1027 73.9167 81.7464 74.1999 81.9523C75.6674 82.9822 79.4779 81.6949 83.2369 78.8627C84.653 77.8071 89.0556 73.3015 90.8064 71.1388C92.2739 69.2851 93.1236 68.4354 93.484 68.4097C93.8445 68.4097 93.9989 69.2336 93.7157 69.6713C92.8661 70.9328 91.2183 73.7907 90.1885 75.7989C89.2101 77.7814 89.0299 78.3478 89.0299 79.6609C89.0299 80.9225 89.1328 81.2829 89.622 81.7464C90.8064 82.8792 94.1277 82.3128 98.2986 80.2788C98.9423 79.9698 99.8176 79.4807 100.23 79.2232C101.8 78.1933 102.109 78.0904 102.547 78.4508C102.753 78.631 102.933 79.146 102.933 79.5837C102.933 80.1758 103.165 80.6393 103.834 81.2829C104.606 82.0296 104.941 82.1583 106.254 82.2613C108.443 82.4158 111.507 81.4117 113.669 79.8154C114.751 79.0172 115.214 79.0687 115.42 79.9956C115.78 81.6691 118.304 82.7505 120.003 81.9266C121.213 81.3602 123.839 78.4251 123.479 78.0389C123.401 77.9874 122.861 78.1933 122.243 78.4766C121.367 78.9142 121.007 78.9657 120.544 78.734C119.9 78.4508 119.745 77.7557 120.157 76.9575C121.702 74.0739 125.101 66.8391 124.998 66.6847C124.869 66.4787 121.857 66.6332 116.965 67.1224C109.601 67.869 107.902 68.5642 103.963 72.5291C100.127 76.3653 97.8867 77.9101 96.7281 77.5497C95.6725 77.215 95.8527 76.5456 98.2471 72.2716C98.5818 71.628 99.277 70.3664 99.7919 69.4395C100.281 68.5127 100.796 67.7145 100.899 67.6888C101.028 67.6373 101.131 67.4313 101.131 67.2253C101.131 66.7362 100.204 66.7619 98.0154 67.3026C96.6508 67.6115 96.1616 67.663 95.9299 67.4313C95.6982 67.1996 95.7497 66.9679 96.1359 66.5044C96.3934 66.144 97.1915 65.1399 97.9124 64.2387C98.6076 63.3376 99.4572 62.3335 99.7662 61.9731C100.719 60.9432 100.41 60.454 99.2255 61.0977ZM116.167 70.4951C116.63 71.1645 116.398 71.9369 115.214 73.456C113.927 75.1553 111.146 76.906 109.782 76.906C109.473 76.906 108.958 76.6743 108.649 76.3911C106.975 74.8206 109.292 71.7052 113.103 70.3664C114.648 69.8 115.703 69.8515 116.167 70.4951Z" fill="black"/>
</svg>
