<svg width="150" height="150" viewBox="0 0 150 150" fill="none" xmlns="http://www.w3.org/2000/svg">
<path fill-rule="evenodd" clip-rule="evenodd" d="M24.137 75.4205L30.3625 83.3541C33.5212 87.3182 40.5241 89.1586 45.5823 87.1656L45.6266 87.2326C39.9007 90.2955 32.2434 88.7415 27.4272 84.8357C24.0312 82.1938 22.0927 78.4461 19.2298 75.4065V81.6958C19.2298 82.2382 19.5753 82.621 19.5753 82.621L17.0742 82.6164C17.0742 82.6164 17.4081 82.2382 17.4127 81.695V66.8301C19.7761 69.6712 21.818 72.4128 24.137 75.4205ZM139.642 80.9425C139.642 80.6969 139.691 80.4537 139.785 80.2268C139.879 79.9999 140.017 79.7938 140.19 79.6202C140.364 79.4466 140.57 79.309 140.797 79.2151C141.024 79.1213 141.268 79.0731 141.513 79.0733C141.883 79.0734 142.244 79.1833 142.552 79.3889C142.859 79.5945 143.099 79.8866 143.24 80.2284C143.382 80.5701 143.419 80.9461 143.346 81.3088C143.274 81.6715 143.096 82.0047 142.834 82.2661C142.572 82.5275 142.239 82.7055 141.876 82.7775C141.514 82.8495 141.138 82.8123 140.796 82.6706C140.454 82.5289 140.162 82.2891 139.957 81.9815C139.752 81.6739 139.642 81.3123 139.642 80.9425ZM141.511 82.6249C141.957 82.6249 142.385 82.4477 142.7 82.1321C143.016 81.8166 143.193 81.3887 143.193 80.9425C143.193 80.4963 143.016 80.0683 142.7 79.7528C142.385 79.4373 141.957 79.26 141.511 79.26C141.065 79.26 140.637 79.4373 140.321 79.7528C140.006 80.0683 139.828 80.4963 139.828 80.9425C139.828 81.3887 140.006 81.8166 140.321 82.1321C140.637 82.4477 141.065 82.6249 141.511 82.6249Z" fill="black"/>
<path fill-rule="evenodd" clip-rule="evenodd" d="M140.694 79.8159H141.707C142.169 79.8159 142.407 80.0299 142.407 80.3886C142.407 80.7956 142.126 80.8991 142.058 80.924V80.9303C142.184 80.9466 142.372 81.0431 142.372 81.3769C142.372 81.6228 142.407 81.8493 142.487 81.9349H142.089C142.033 81.8423 142.033 81.7263 142.033 81.6236C142.033 81.2361 141.952 81.0626 141.612 81.0626H141.066V81.9349H140.693L140.694 79.8159ZM141.066 80.7816H141.674C141.908 80.7816 142.036 80.6665 142.036 80.4423C142.036 80.1731 141.861 80.1202 141.668 80.1202H141.066V80.7816ZM132.016 82.8594C131.049 82.8672 124.45 82.6493 124.464 75.1398C124.478 67.6497 131.002 67.5462 132.016 67.5525C133.03 67.547 139.555 67.6505 139.568 75.1398C139.581 82.6493 132.982 82.8664 132.016 82.8594ZM132.043 80.7855C132.459 80.7855 135.511 80.924 135.483 74.8487C135.459 69.217 132.504 69.3796 132.019 69.3828H132.024C131.54 69.3796 128.573 69.217 128.547 74.8487C128.52 80.924 131.572 80.7855 131.989 80.7855H132.043ZM122.571 68.396L122.569 70.2574C121.797 69.9329 121.364 69.7003 120.549 69.4777C119.91 69.3368 117.161 68.6832 115.85 70.066C115.292 70.6263 115.123 71.6558 116.226 72.4434C117.786 73.4527 120.011 73.9134 121.836 75.4044C123.034 76.353 123.417 77.4627 123.112 79.1599C122.802 80.8914 120.91 82.2866 119.218 82.6392C116.754 83.1496 113.974 82.9115 111.778 81.9793L111.787 80.142C113.807 80.9855 116.953 82.0617 118.906 80.3528C119.44 79.8649 119.766 79.1599 119.483 78.444C119.04 77.1125 115.422 76.325 113.208 74.6713C111.016 73.3266 111.214 71.0201 111.981 69.7438C114.049 66.6482 119.292 67.5034 122.571 68.396ZM109.905 68.396V70.2574C109.133 69.9329 108.7 69.7003 107.885 69.4777C107.245 69.3368 104.497 68.6832 103.184 70.066C102.626 70.6263 102.457 71.6558 103.562 72.4434C105.122 73.4527 107.345 73.9134 109.171 75.4044C110.37 76.353 110.753 77.4627 110.448 79.1599C110.138 80.8914 108.245 82.2866 106.552 82.6392C104.09 83.1496 101.309 82.9115 99.1118 81.9793L99.1227 80.142C101.143 80.9855 104.289 82.0617 106.242 80.3528C106.774 79.8649 107.101 79.1599 106.817 78.444C106.374 77.1125 102.756 76.325 100.544 74.6713C98.3507 73.3266 98.5484 71.0201 99.3172 69.7438C101.383 66.6482 106.628 67.5034 109.905 68.396ZM58.0329 68.396L58.0313 70.2574C57.2602 69.9329 56.8267 69.7003 56.0112 69.4777C55.3723 69.3368 52.6245 68.6832 51.3117 70.066C50.7538 70.6263 50.5849 71.6558 51.6891 72.4434C53.2494 73.4527 55.4734 73.9134 57.2983 75.4044C58.4975 76.353 58.8796 77.4627 58.5737 79.1599C58.264 80.8914 56.3715 82.2866 54.6797 82.6392C52.2152 83.1496 49.4371 82.9115 47.2395 81.9793L47.2496 80.142C49.2697 80.9855 52.416 82.0617 54.3684 80.3528C54.9015 79.8649 55.2283 79.1599 54.9466 78.444C54.5023 77.1125 50.8845 76.325 48.6713 74.6713C46.4784 73.3266 46.6768 71.0201 47.4449 69.7438C49.511 66.6482 54.7552 67.5034 58.0329 68.396ZM25.6479 74.974C27.9669 77.9817 30.0081 80.7225 32.3722 83.5629V68.698C32.3808 68.3621 32.4995 68.0384 32.71 67.7766L30.2151 67.7743C30.2151 67.7743 30.5559 68.1532 30.5559 68.698V74.988C28.4276 72.7282 26.8098 70.0777 24.725 67.7813C24.4627 67.4606 22.662 65.5276 22.1126 65.0669C18.368 61.4032 12.2958 59.9013 6.61816 62.3448L6.67419 62.4445C8.61343 61.7814 11.4188 61.7947 14.1673 62.9098C15.9401 63.5635 17.4124 64.4747 18.8777 66.2809C19.252 66.7797 25.6479 74.974 25.6479 74.974ZM39.3518 81.11C41.3486 81.3092 43.7952 80.9987 45.7477 80.9536L45.7508 82.6166H35.1721C35.1721 82.6166 35.5052 82.2656 35.506 81.6921V68.6995C35.5052 68.1252 35.1721 67.775 35.1721 67.775H45.7508L45.7477 69.4372C43.796 69.3921 41.3494 69.0824 39.3518 69.2816L39.3455 74.1826C40.9891 74.2846 42.9221 74.3032 44.4567 74.0993V75.8658C42.9524 75.7258 40.9766 75.6939 39.3487 75.7826L39.3494 76.3467L39.3518 81.11ZM91.2887 81.11C93.2855 81.3092 95.7313 80.9987 97.6846 80.9536L97.6877 82.6166H87.109C87.109 82.6166 87.4421 82.2656 87.4421 81.6921V68.6995C87.4421 68.1252 87.109 67.775 87.109 67.775H97.6877L97.6846 69.4372C95.7313 69.3921 93.2863 69.0824 91.2887 69.2816L91.2825 74.1826C92.9252 74.2846 94.8574 74.3032 96.392 74.0993V75.8658C94.8886 75.7258 92.9128 75.6939 91.2856 75.7826V76.3467L91.2887 81.11ZM76.9164 76.4829L76.9179 81.6874C76.9195 82.2602 77.2525 82.6174 77.2525 82.6174L72.7266 82.6158C72.7266 82.6158 73.0589 82.2648 73.0597 81.6913V68.6995C73.0589 68.1252 72.7258 67.775 72.7258 67.775L80.4369 67.7758C82.5286 67.8606 84.7441 69.0186 84.8157 71.5368C84.8313 73.5959 83.9224 74.7771 82.5574 75.4316C82.2897 75.553 82.3131 75.5195 82.2244 75.5865C83.194 77.8494 84.0757 79.5031 85.2476 81.6921C85.4881 82.2563 85.9604 82.6166 85.9604 82.6166H81.2898C81.2898 82.6166 81.566 82.2563 81.2804 81.6921C81.2804 81.6921 79.6221 77.7848 78.8455 76.4853L76.9164 76.4829ZM76.8946 69.6481V74.6464C78.1685 74.6519 79.7155 74.8137 80.6034 73.7927C81.3528 72.7951 81.2298 71.4963 80.7248 70.5866C79.8377 69.0886 76.8946 69.6481 76.8946 69.6481ZM64.2366 81.6874C64.236 82.0269 64.3541 82.3558 64.5704 82.6174L60.0437 82.6158C60.0437 82.6158 60.3768 82.2648 60.3784 81.6913V68.6995C60.3776 68.1252 60.0437 67.775 60.0437 67.775H67.5198C69.3936 67.8404 70.8372 68.7019 71.4597 70.5104C71.9259 72.108 71.8589 74.1725 70.7267 75.4588C69.2178 77.479 64.2218 77.1794 64.2218 77.1794L64.2366 81.6874ZM64.2179 69.6606L64.2078 75.2277C65.4949 75.3156 67.028 75.4588 67.9159 74.4379C68.6645 73.4387 68.5423 71.5025 68.038 70.5928C67.1509 69.0948 64.2179 69.6606 64.2179 69.6606Z" fill="black"/>
</svg>
