<svg width="150" height="150" viewBox="0 0 150 150" fill="none" xmlns="http://www.w3.org/2000/svg">
<path fill-rule="evenodd" clip-rule="evenodd" d="M108.681 91.6393C117.693 91.6393 125 84.3334 125 75.3188C125 66.3065 117.693 59 108.681 59H41.32C32.3065 59 25 66.3065 25 75.3188C25 84.3334 32.3065 91.6393 41.32 91.6393H108.681ZM108.429 89.6854C116.355 89.6854 122.781 83.2603 122.781 75.3342C122.781 67.4069 116.355 60.9812 108.429 60.9812H41.5123C33.5856 60.9812 27.1593 67.4069 27.1593 75.3342C27.1593 83.2603 33.5856 89.6854 41.5123 89.6854H108.429ZM108.504 86.6584C114.769 86.6584 119.848 81.5795 119.848 75.3143C119.848 69.0491 114.769 63.9708 108.504 63.9708H41.617C35.3518 63.9708 30.2723 69.0485 30.2723 75.3143C30.2723 81.5795 35.3518 86.6584 41.617 86.6584H108.504ZM41.3649 70.4613H41.6909C42.5905 70.4613 42.8693 70.7862 42.8693 71.7489V76.7584C42.8693 77.72 42.5905 78.046 41.6909 78.046H41.3649V70.4613ZM36.6969 67.5611V69.9185C37.1771 70.1205 37.2078 70.5074 37.2243 70.9734V77.4406C37.2084 77.8901 37.1617 78.2935 36.6969 78.495V80.8529H42.5587C43.815 80.8529 44.9934 80.7755 45.9396 79.8753C46.9473 78.9297 47.0099 77.9214 47.0099 76.619V71.6403C47.0099 70.3686 46.9012 69.1589 45.8156 68.3059C44.8699 67.5771 43.5669 67.5617 42.4346 67.5617H36.6969V67.5611ZM53.1357 74.5239H51.7093V74.1529C51.7093 73.7643 51.7707 73.1589 52.4222 73.1589C53.0737 73.1589 53.1357 73.7643 53.1357 74.1529V74.5239ZM48.0483 77.2853C48.0483 78.4631 48.0956 79.5493 49.1186 80.3089C49.9249 80.9132 51.4299 81.1624 52.9184 81.0537C54.4228 80.9451 55.9272 80.4956 56.7329 79.7974V77.3467H53.0737V77.7035C53.0737 78.1997 53.0265 78.7738 52.3909 78.7738C51.7548 78.7738 51.6928 78.1376 51.7087 77.6563V76.7578H56.7329V74.4466C56.7955 72.0579 55.9107 70.8641 52.313 70.8795C48.8859 70.8949 47.9863 71.9652 48.0483 74.6326V77.2853ZM57.5711 80.8523V78.4944C58.0678 78.1843 58.0211 77.6881 58.0211 77.192V71.2215C58.0211 70.7247 58.0678 70.2286 57.5711 69.9185V67.5611H62.6118V69.9185C62.1156 70.2286 62.1617 70.7247 62.1617 71.2215V78.0295H62.5646C63.6195 78.0295 63.6041 77.3934 63.6041 76.5558V74.3999H67.2486V80.8517L57.5711 80.8523ZM71.8546 74.6178C71.8546 74.0744 71.7613 73.1595 72.5527 73.1595C73.3437 73.1595 73.235 74.0898 73.235 74.6178V77.4406C73.235 77.9675 73.2811 78.7743 72.5374 78.7743C71.8085 78.7743 71.8546 77.9675 71.8546 77.4406V74.6178ZM76.8942 74.586C76.8942 73.3461 76.8162 72.1666 75.6384 71.4536C74.7855 70.9569 73.2959 70.8801 72.3041 70.8801C71.2031 70.8801 70.0088 70.9728 69.1245 71.671C68.2096 72.3839 68.1942 73.5322 68.1942 74.5865V77.1305C68.1942 78.4176 68.1942 79.6113 69.388 80.4022C70.2415 80.9758 71.6685 81.0543 72.6762 81.0543C73.7926 81.0543 75.0956 80.961 75.9798 80.2014C76.8635 79.4412 76.8942 78.2162 76.8942 77.1311V74.586ZM81.795 71.6869C82.7873 71.0189 83.6561 70.8494 84.4323 70.8801C85.1924 70.9108 85.8582 71.1595 86.2303 71.531C86.8983 72.1666 86.9751 72.8807 86.9751 73.7177V77.378C86.9751 77.8588 86.9296 78.4016 87.4098 78.6657V80.8523H83.5179C83.3 79.8594 83.3159 78.821 83.3159 77.8127V74.9592C83.3159 74.8966 83.3625 74.4471 83.2072 74.0898C82.9591 73.7177 82.5557 73.4389 81.9514 73.7177V77.378C81.9514 77.8588 81.9048 78.4016 82.4004 78.6657V80.8523H77.8404V78.6657C78.3218 78.3863 78.2905 77.9362 78.2905 77.4406V74.4784C78.2905 73.951 78.3059 73.6096 77.8404 73.2676V71.0815H81.7955L81.795 71.6869ZM93.4582 78.1063C93.258 78.2155 93.0342 78.2744 92.8062 78.2782C92.0625 78.2782 92.0625 77.4241 92.0625 76.8972V74.7419C92.0625 74.1837 92.0625 73.5322 92.7914 73.5322C93.0235 73.5322 93.2716 73.609 93.4582 73.733V78.1063ZM97.5681 71.0809H93.5516V71.6397C92.8523 71.1122 91.9999 70.8801 91.131 70.8801C88.945 70.8801 88.4016 72.2132 88.4016 74.3379V78.0142C88.4016 80.1536 89.4565 81.0537 91.3023 81.0537C92.0005 81.0537 92.8062 80.8364 93.4582 80.3402V80.9604C93.4582 81.518 93.5516 82.4802 92.7447 82.4802C92.45 82.4802 92.2793 82.3254 92.1712 82.1087C92.0779 81.8913 92.0625 81.6131 92.0625 81.3951H88.665V83.7366C90.0921 84.5275 91.3177 84.7755 92.9456 84.7755C94.0625 84.7755 95.4736 84.6361 96.3118 83.8145C97.1641 82.9923 97.1186 81.5038 97.1186 80.4022V74.4778C97.1186 73.9811 97.0862 73.5623 97.5675 73.267V71.0809H97.5681ZM102.685 71.5162C103.432 71.0678 104.295 70.8468 105.166 70.8801C105.927 70.9108 106.593 71.1595 106.966 71.531C107.632 72.1666 107.71 72.8807 107.71 73.7177V77.378C107.71 77.8588 107.663 78.4016 108.145 78.6657V80.8523H104.253C104.035 79.8594 104.051 78.821 104.051 77.8127V74.9592C104.051 74.8966 104.097 74.4471 103.943 74.0898C103.694 73.7177 103.29 73.4389 102.685 73.7177V77.378C102.685 77.8588 102.64 78.4016 103.135 78.6657V80.8523H98.5764V78.6657C99.0566 78.3863 99.0264 77.9362 99.0264 77.4406V71.0354C99.0407 70.5381 99.072 70.0107 98.561 69.7483V67.5611H102.685L102.685 71.5162ZM113.138 77.378C113.138 77.8742 113.092 78.3704 113.603 78.6657V80.8523H109.028V78.6657C109.509 78.3704 109.478 77.9362 109.478 77.4406V74.5552C109.478 74.0591 109.524 73.5623 109.028 73.2676V71.0815H113.138V77.378ZM109.184 68.9261C109.184 67.8712 110.269 67.4371 111.169 67.4371C112.083 67.4371 113.138 67.9338 113.138 68.9887C113.138 70.0112 112.1 70.4926 111.2 70.4926C110.24 70.492 109.184 70.0272 109.184 68.9261ZM48.5166 69.0536H56.4041V69.7358H48.5166V69.0536Z" fill="black"/>
</svg>
