<svg width="150" height="150" viewBox="0 0 150 150" fill="none" xmlns="http://www.w3.org/2000/svg">
<path d="M124.938 65.9044C123.578 58.0967 100.119 55.6602 72.5382 60.462C60.9552 62.4797 50.4963 65.4557 42.3514 68.8037C43.6026 68.831 44.5305 69.1179 45.0943 69.6802C45.5351 70.1215 45.7577 70.7272 45.7577 71.4818V72.2562H43.0532V71.5724C43.0532 71.0026 42.7115 70.6495 42.1064 70.6495C41.5979 70.6495 41.2846 70.8791 41.1835 71.3313C41.1496 71.5101 41.1533 71.694 41.1944 71.8712C41.4838 73.0541 45.4997 73.7888 45.9365 75.9718C45.9938 76.2527 46.0715 76.8539 45.949 77.7141C45.6984 79.4747 44.1514 80.1541 42.1821 80.1541C39.4333 80.1541 38.3166 78.8521 38.3166 77.0571L38.3186 76.2079H41.2178L41.2193 77.2658C41.2193 77.8605 41.6516 78.1887 42.2404 78.1887C42.7982 78.1887 43.1239 77.9641 43.2365 77.5049C43.2888 77.2937 43.3117 76.9824 43.2166 76.7443C42.6802 75.3985 38.9302 74.77 38.4685 72.5939C38.3654 72.1048 38.3569 71.6884 38.4426 71.162C38.4866 70.901 38.5674 70.6476 38.6827 70.4094C29.6483 74.6345 24.3633 79.2835 25.0616 83.2974C26.4228 91.106 49.8817 93.5401 77.4621 88.7382C89.586 86.6279 100.486 83.4687 108.781 79.9285C108.661 79.9344 108.544 79.9474 108.42 79.9474C106.532 79.9474 104.847 79.2401 104.672 77.3106C104.641 76.9595 104.636 76.8126 104.635 76.6123L104.636 72.1766C104.636 71.9853 104.658 71.6496 104.679 71.4763C104.903 69.6115 106.377 68.8425 108.421 68.8425C110.002 68.8425 111.941 69.2962 112.154 71.4778C112.183 71.7517 112.18 72.0441 112.179 72.1402V72.5591H109.448V71.934C109.448 71.9205 109.444 71.687 109.414 71.541C109.369 71.3184 109.179 70.8024 108.401 70.8024C107.633 70.8024 107.434 71.3194 107.384 71.5415C107.356 71.6635 107.342 71.8389 107.342 72.0331V76.8539C107.34 77.0212 107.348 77.1522 107.365 77.2484C107.378 77.3241 107.516 77.9885 108.411 77.9885C109.299 77.9885 109.436 77.3241 109.449 77.2484C109.472 77.1179 109.475 76.9625 109.474 76.8539V75.3602H108.399V73.7514H112.2V76.6133C112.199 76.8081 112.196 76.952 112.163 77.3106C112.118 77.8167 111.958 78.245 111.708 78.6111C120.505 74.4338 125.628 69.86 124.938 65.9044ZM53.4219 79.7422L52.0383 70.3407H51.9885L50.5695 79.7422H47.6533L49.6147 69.1249H54.3727L56.3222 79.7422H53.4219ZM67.4485 79.7422L67.3842 70.5225H67.3374L65.6216 79.7422H62.8847L61.1773 70.5225H61.1285L61.0663 79.7422H58.3543L58.5894 69.1249H62.9514L64.2215 77.0118H64.2838L65.5573 69.1249H69.9174L70.1515 79.7422H67.4485ZM80.2194 77.6847C79.9275 79.7412 77.9128 80.1008 76.4889 80.1008C74.1245 80.1008 72.6622 79.0902 72.6622 77.0337L72.6637 76.1949H75.5281L75.5301 77.2399C75.5301 77.8072 75.93 78.1543 76.5476 78.1543C77.0985 78.1543 77.4212 77.9332 77.5333 77.479C77.5851 77.2673 77.6065 76.9585 77.5149 76.7254C76.9869 75.405 73.2664 74.758 72.8141 72.6158C72.7105 72.1302 72.7031 71.7178 72.7882 71.1969C73.103 69.2549 74.9668 68.8515 76.467 68.8515C77.8087 68.8515 78.7854 69.1443 79.3712 69.7301C79.808 70.1674 80.0291 70.7675 80.0291 71.5141V72.2802H77.3505V71.6043C77.3505 71.0255 76.9914 70.6908 76.4142 70.6908C75.9021 70.6908 75.5923 70.9184 75.4907 71.3662C75.4578 71.5431 75.4622 71.725 75.5037 71.9001C75.7906 73.0776 79.7711 73.7973 80.2069 75.9599C80.2632 76.2358 80.3404 76.828 80.2194 77.6847ZM90.1398 76.7199C90.1438 76.9191 90.1244 77.3171 90.1135 77.4192C89.9501 79.1684 88.699 80.0575 86.4044 80.0575C84.1008 80.0575 82.8487 79.1684 82.6863 77.4192C82.6679 77.1872 82.6591 76.9546 82.6599 76.7219V69.1224H85.4003V76.9615C85.3973 77.1368 85.4062 77.2663 85.4237 77.3564C85.4575 77.5308 85.6309 78.0966 86.4044 78.0966C87.1754 78.0966 87.3487 77.5303 87.3851 77.3584C87.4005 77.2658 87.41 77.1298 87.41 76.961V69.1224H90.1398V76.7199ZM101.947 79.6341H98.1333L95.5737 71.2243H95.5309L95.6729 79.6341H93.0152V69.1249H96.9883L99.3541 77.2035H99.4094L99.2694 69.1249H101.947V79.6341Z" fill="black"/>
</svg>
