<svg xmlns="http://www.w3.org/2000/svg" xmlns:xlink="http://www.w3.org/1999/xlink" width="85" height="457"><defs><symbol viewBox="0 0 10 10" id="arrow-external">
    <path d="M1.43,1.67V0H10l0,8.55H8.31l.08-5.77L1.16,10,0,8.83,7.23,1.61Z"/>
</symbol><symbol viewBox="0 0 22 21" id="arrow-left">
    <path d="M11.48,19.3l-7.3-7.63,17.82,0V9.31H4.2L11.48,1.7,9.88,0,0,10.47,9.88,21Z"/>
</symbol><symbol viewBox="0 0 9 4" id="arrow-long-left">
    <polygon points="1.81 0 2.13 0.32 0.71 1.77 9 1.77 9 2.23 0.71 2.23 2.13 3.68 1.81 4 0 2.16 0.16 2 0 1.84 1.81 0"/>
</symbol><symbol viewBox="0 0 9 4" id="arrow-long-right">
    <polygon points="7.19 4 6.87 3.68 8.29 2.23 0 2.23 0 1.77 8.29 1.77 6.87 0.32 7.19 0 9 1.84 8.84 2 9 2.16 7.19 4"/>
</symbol><symbol viewBox="0 0 22 21" id="arrow-right">
    <path d="M10.52,1.7l7.3,7.63L0,9.36v2.33H17.8L10.52,19.3l1.6,1.7L22,10.53,12.12,0Z"/>
</symbol><symbol viewBox="0 0 12 10" id="check">
    <polygon points="4.13 10 0 5.44 1.47 4.12 4.13 7.06 10.53 0 12 1.32 4.13 10"/>
</symbol><symbol viewBox="0 0 4 6" id="chevron-left">
    <polygon points="3.48 0 4 0.58 1.19 3 4 5.42 3.48 6 0 3 3.48 0"/>
</symbol><symbol viewBox="0 0 4 6" id="chevron-right">
    <polygon points="0.52 6 0 5.42 2.81 3 0 0.58 0.52 0 4 3 0.52 6"/>
</symbol><symbol viewBox="0 0 16 16" id="cross">
    <polygon points="14.7 16 8 9.3 1.3 16 0 14.7 6.7 8 0 1.3 1.3 0 8 6.7 14.7 0 16 1.3 9.3 8 16 14.7 14.7 16"/>
</symbol><symbol viewBox="0 0 16 16" id="flag">
    <path d="M12.67,2a.67.67,0,0,1,.52,1.08l0,.06L10.61,5.67,13.14,8.2a.67.67,0,0,1-.4,1.13H4v4a.68.68,0,0,1-.17.45.69.69,0,0,1-.42.22H3.33a.66.66,0,0,1-.44-.17.69.69,0,0,1-.22-.42V2.67a.73.73,0,0,1,.16-.45A.69.69,0,0,1,3.25,2h9.42Z"/>
</symbol><symbol viewBox="0 0 37 42" id="logo-icon">
    <path d="M37,20.75h0l-4.2-4.94L16.4,0,0,15.8H0L7.75,35h0l22,7L37,20.75h0Zm-2-.65-5-1.57,2-1.92,3,3.49Zm-6.2-2L16,14.09l.93-12L31.15,15.81l-2.41,2.33ZM16.4,30.05l-4.32-4.17,3.63-10.69L27.82,19Zm-.69-27.8-.94,12.13L11.16,25,1.64,15.81ZM2,17.76l8.73,8.42L8.32,33.36Zm9.65,9.31,4.7,4.54h0l10.29,8.22L9.21,34.32l2.47-7.25ZM29.12,40.34l-11.9-9.51L29.06,19.41l6.48,2.06L29.12,40.35Z"/>
</symbol><symbol viewBox="0 0 13 15" id="logo-icon-filled">
    <path d="M5.05,4.81,2.64,12,0,5.38,5.41.05Z"/>
    <path d="M12.75,6.93l-7-2.28L6.06,0l5.46,5.38Z"/>
    <path d="M5.57,5.27,3.13,12.6,10.56,15,13,7.68Z"/>
</symbol><symbol viewBox="0 0 85 39" id="logo-name">
    <path d="M77.35,19.86H77.1v-.42h.29c.14,0,.29,0,.29.2s-.16.23-.33.23Zm1,.08a1,1,0,0,1-1,1h0a1,1,0,0,1,0-2A.94.94,0,0,1,78.31,19.94Zm-.38.68-.39-.6a.35.35,0,0,0,.35-.37c0-.26-.16-.39-.47-.39h-.53v1.36h.21V20h.24l.36.59ZM25,22.76v7.67h3.42V22.76Zm60-9.53V39H0V13.23H6.86V9.4H20.55L42.5,0l22,9.4H78.14v3.83ZM19.57,30.45h-6V16.25H9.68V33.84h9.89V30.46Zm12.78-9.24a1.85,1.85,0,0,0-1.85-1.84H23a1.84,1.84,0,0,0-1.84,1.84h0V32A1.84,1.84,0,0,0,23,33.84H30.5A1.85,1.85,0,0,0,32.35,32h0Zm18.1-1.84H46.56V30.46H44.21V19.37H40.8V30.46H38.45V19.37H34.56V32a1.84,1.84,0,0,0,1.84,1.85H41a1.41,1.41,0,0,0,1.5-1.31A1.41,1.41,0,0,0,44,33.84h4.6A1.84,1.84,0,0,0,50.44,32V19.37Zm11.47,0H52.67V33.84h9.25V30.45H56.58V28.24h5.34V25H56.58V22.77h5.34Zm.86,1.05h2.69L66,16.25H62.78ZM76,30.17a3.82,3.82,0,0,0-.4-1.8h0l0,0-.05-.1,0-.05c-.62-1.22-2-2.26-4.21-3.15l-.08,0h0c-.45-.17-1.77-.69-1.92-1.54a1,1,0,0,1,.32-.84,1.73,1.73,0,0,1,1.28-.43,7.34,7.34,0,0,1,2.46.59l2.12.89.09,0V20.55l0,0a12.89,12.89,0,0,0-4.28-1.66l-.73,0A5,5,0,0,0,66.06,21a4.46,4.46,0,0,0-.21,4.37,7.13,7.13,0,0,0,3.71,2.82h0a17.09,17.09,0,0,1,1.71.86h0a1.39,1.39,0,0,1,.81,1.47,1.43,1.43,0,0,1-1.5.88,1.56,1.56,0,0,1-.31,0h0A31.48,31.48,0,0,1,65.74,30l-.09,0v3.47l0,0a20.59,20.59,0,0,0,5.49,1,5,5,0,0,0,3.14-.84A4.91,4.91,0,0,0,76,30.19ZM78.56,20a1.2,1.2,0,0,0-2.4,0h0a1.2,1.2,0,0,0,2.4,0Z"/>
</symbol><symbol viewBox="0 0 236 34" id="logo-tagline">
    <path d="M0 0H47.43C48.6767 0 49.8525 0.325833 50.9575 0.9775C52.0625 1.62917 52.955 2.5075 53.635 3.6125C54.315 4.7175 54.655 5.93583 54.655 7.2675V26.69C54.655 27.9933 54.315 29.2117 53.635 30.345C52.955 31.45 52.0625 32.3425 50.9575 33.0225C49.8525 33.6742 48.6767 34 47.43 34H0V0ZM46.7925 29.0275C47.6142 29.0275 48.2942 28.7583 48.8325 28.22C49.3992 27.6533 49.6825 26.9308 49.6825 26.0525L49.64 7.8625C49.64 6.98417 49.3708 6.27583 48.8325 5.7375C48.2942 5.19917 47.6 4.93 46.75 4.93H4.9725V29.0275H46.7925Z"/>
<path d="M95.0722 34C93.8255 34 92.6355 33.6742 91.5022 33.0225C90.3972 32.3425 89.5047 31.45 88.8247 30.345C88.173 29.24 87.8472 28.0358 87.8472 26.7325V7.2675C87.8472 5.93583 88.1872 4.7175 88.8672 3.6125C89.5472 2.47916 90.4397 1.60083 91.5447 0.9775C92.6497 0.325833 93.8255 0 95.0722 0H135.32C136.566 0 137.742 0.325833 138.847 0.9775C139.98 1.62917 140.873 2.52167 141.525 3.655C142.205 4.76 142.545 5.96417 142.545 7.2675V12.0275H137.615V7.905C137.615 7.02667 137.331 6.31833 136.765 5.78C136.226 5.21333 135.546 4.93 134.725 4.93H95.7097C94.888 4.93 94.1938 5.21333 93.6272 5.78C93.0888 6.31833 92.8197 7.02667 92.8197 7.905V26.0525C92.8197 26.9308 93.103 27.6533 93.6697 28.22C94.2363 28.7583 94.9305 29.0275 95.7522 29.0275H134.682C135.532 29.0275 136.226 28.7583 136.765 28.22C137.303 27.6533 137.572 26.945 137.572 26.095L137.615 20.0175H115.175V15.7675H142.545V26.7325C142.545 28.0642 142.205 29.2825 141.525 30.3875C140.845 31.4925 139.938 32.3708 138.805 33.0225C137.7 33.6742 136.524 34 135.277 34H95.0722Z"/>
<path d="M176.109 0H180.912L205.689 20.485L230.467 0H235.482V34H230.509V6.2475L206.412 26.18H204.967L181.082 6.46V34H176.109V0Z"/>
</symbol><symbol viewBox="0 0 10 1" id="minus">
    <path d="M0,0H10V1H0Z"/>
</symbol><symbol viewBox="0 0 7 8" id="play">
    <path d="M7,4,0,8V0Z"/>
</symbol><symbol viewBox="0 0 10 10" id="plus">
    <polygon points="10 4.67 5.33 4.67 5.33 0 4.33 0 4.33 4.67 0 4.67 0 5.67 4.33 5.67 4.33 10 5.33 10 5.33 5.67 10 5.67 10 4.67"/>
</symbol><symbol viewBox="0 0 16 14" id="warning">
    <path d="M8,0A2,2,0,0,1,9,.24,2,2,0,0,1,9.72.9L9.8,1l5.92,9.85a2.1,2.1,0,0,1,.28,1,2.16,2.16,0,0,1-.24,1,2.18,2.18,0,0,1-.71.77,2.08,2.08,0,0,1-1,.33h-12a2.13,2.13,0,0,1-1-.27A2.27,2.27,0,0,1,.31,13a2.06,2.06,0,0,1-.09-2l.07-.13L6.2,1A2.18,2.18,0,0,1,7,.27,2.06,2.06,0,0,1,8,0Zm.05,9.8H8a.74.74,0,0,0-.44.24.68.68,0,0,0,0,.92A.74.74,0,0,0,8,11.2h.17A.74.74,0,0,0,8.57,11a.68.68,0,0,0,0-.92.74.74,0,0,0-.44-.24ZM8,4.2a.69.69,0,0,0-.47.18.73.73,0,0,0-.23.44v3a.69.69,0,0,0,.24.44A.65.65,0,0,0,8,8.4a.69.69,0,0,0,.47-.18.68.68,0,0,0,.23-.44v-3a.68.68,0,0,0-.23-.44A.69.69,0,0,0,8,4.2Z"/>
</symbol></defs></svg>