<svg width="24" height="24" viewBox="0 0 24 24" fill="none" xmlns="http://www.w3.org/2000/svg">
<path d="M18.6 8.99999C18.6 5.35199 15.648 2.39999 12 2.39999C8.352 2.39999 5.4 5.35199 5.4 8.99999C5.4 12.24 7.728 14.916 10.8 15.48V18H8.4V20.4H10.8V22.8H13.2V20.4H15.6V18H13.2V15.48C16.272 14.916 18.6 12.24 18.6 8.99999ZM7.8 8.99999C7.8 6.68399 9.684 4.79999 12 4.79999C14.316 4.79999 16.2 6.68399 16.2 8.99999C16.2 11.316 14.316 13.2 12 13.2C9.684 13.2 7.8 11.316 7.8 8.99999Z" fill="white"/>
</svg>
