<svg width="24" height="24" viewBox="0 0 24 24" fill="none" xmlns="http://www.w3.org/2000/svg">
<path d="M3.5 12H20.5M12 3.5V20.5" stroke="white" stroke-width="2" stroke-linecap="round" stroke-linejoin="round"/>
<path d="M2.5 2.5H4.5V4.5H2.5V2.5ZM7 2.5H9V4.5H7V2.5ZM15 2.5H17V4.5H15V2.5ZM19.5 2.5H21.5V4.5H19.5V2.5ZM19.5 7H21.5V9H19.5V7ZM2.5 7H4.5V9H2.5V7ZM2.5 19.5H4.5V21.5H2.5V19.5ZM7 19.5H9V21.5H7V19.5ZM15 19.5H17V21.5H15V19.5ZM19.5 19.5H21.5V21.5H19.5V19.5ZM19.5 15H21.5V17H19.5V15ZM2.5 15H4.5V17H2.5V15Z" fill="white"/>
</svg>
