<svg width="25" height="24" viewBox="0 0 25 24" fill="none" xmlns="http://www.w3.org/2000/svg">
<path d="M12.4001 2C10.4223 2 8.48894 2.58649 6.84445 3.6853C5.19996 4.78412 3.91823 6.3459 3.16136 8.17316C2.40448 10.0004 2.20645 12.0111 2.5923 13.9509C2.97815 15.8907 3.93056 17.6725 5.32908 19.0711C6.72761 20.4696 8.50944 21.422 10.4492 21.8078C12.3891 22.1937 14.3997 21.9957 16.227 21.2388C18.0542 20.4819 19.616 19.2002 20.7148 17.5557C21.8137 15.9112 22.4001 13.9778 22.4001 12M12.4001 2C15.0523 2 17.5959 3.05357 19.4712 4.92893C21.3466 6.80429 22.4001 9.34783 22.4001 12M12.4001 2V12M22.4001 12H12.4001M12.4001 12L19.0668 19.2222" stroke="white" stroke-width="2" stroke-linecap="round" stroke-linejoin="round"/>
</svg>
