<svg width="25" height="24" viewBox="0 0 25 24" fill="none" xmlns="http://www.w3.org/2000/svg">
<g clip-path="url(#clip0_3472_4285)">
<path d="M12.5996 5.25C14.0494 5.25 15.2246 4.07475 15.2246 2.625C15.2246 1.17525 14.0494 0 12.5996 0C11.1499 0 9.97461 1.17525 9.97461 2.625C9.97461 4.07475 11.1499 5.25 12.5996 5.25Z" fill="white"/>
<path d="M21.084 6H4.11523C3.77957 6 3.45765 6.13334 3.2203 6.3707C2.98295 6.60805 2.84961 6.92996 2.84961 7.26563C2.84961 7.60129 2.98295 7.92321 3.2203 8.16056C3.45765 8.39791 3.77957 8.53125 4.11523 8.53125H8.89086C9.21477 8.53125 9.59398 8.6761 9.80867 9.23438C10.0595 9.88266 9.93664 11.1347 9.78195 12.1045L9.57945 13.2506C9.57983 13.2536 9.57952 13.2566 9.57854 13.2595C9.57757 13.2623 9.57596 13.2649 9.57383 13.267L7.95195 22.4925C7.89313 22.8274 7.96935 23.1719 8.16394 23.4508C8.35852 23.7296 8.65562 23.92 8.99023 23.9803C9.15567 24.0096 9.32526 24.0057 9.48918 23.9689C9.65309 23.932 9.80806 23.863 9.94508 23.7658C10.0821 23.6686 10.1985 23.5451 10.2874 23.4026C10.3763 23.2601 10.436 23.1013 10.463 22.9355L11.5838 16.523C11.5838 16.523 11.9434 15 12.5996 15C13.2666 15 13.6187 16.523 13.6187 16.523L14.7395 22.9411C14.7666 23.1084 14.8267 23.2686 14.9163 23.4124C15.006 23.5562 15.1234 23.6807 15.2616 23.7786C15.3999 23.8766 15.5563 23.9461 15.7217 23.983C15.887 24.0199 16.0581 24.0236 16.2249 23.9937C16.3917 23.9638 16.5509 23.9011 16.6932 23.8091C16.8355 23.7171 16.9581 23.5976 17.0537 23.4578C17.1494 23.3179 17.2163 23.1604 17.2505 22.9945C17.2847 22.8285 17.2855 22.6574 17.2529 22.4911L15.6305 13.2656C15.6309 13.2627 15.6306 13.2597 15.6297 13.2569C15.6288 13.254 15.6274 13.2514 15.6254 13.2492L15.4224 12.1031C15.2677 11.1333 15.1449 9.88125 15.3957 9.23297C15.6095 8.6761 16.0009 8.52985 16.2995 8.52985H21.084C21.4196 8.52985 21.7416 8.3965 21.9789 8.15915C22.2163 7.9218 22.3496 7.59989 22.3496 7.26422C22.3496 6.92856 22.2163 6.60664 21.9789 6.36929C21.7416 6.13194 21.4196 5.9986 21.084 5.9986V6Z" fill="white"/>
</g>
<defs>
<clipPath id="clip0_3472_4285">
<rect width="24" height="24" fill="white" transform="translate(0.599609)"/>
</clipPath>
</defs>
</svg>
