<svg width="26" height="26" viewBox="0 0 26 26" fill="none" xmlns="http://www.w3.org/2000/svg">
<path d="M10 1C8.09 1 6.543 2.387 6.156 4.188C3.824 4.604 2 6.55 2 9C2 9.246 2.027 9.465 2.063 9.688C1.418 10.636 1 11.753 1 13C1 14.797 1.895 16.309 3.156 17.406C3.066 17.762 3 18.117 3 18.5C3 20.973 5.027 23 7.5 23H7.563C8.145 24.129 9.153 25 10.5 25C10.9666 24.9989 11.4283 24.9043 11.8577 24.7217C12.2871 24.5391 12.6755 24.2723 13 23.937C13.3245 24.2723 13.7129 24.5391 14.1423 24.7217C14.5717 24.9043 15.0334 24.9989 15.5 25C16.848 25 17.855 24.129 18.438 23H18.5C20.848 23 22.773 21.172 22.969 18.875H23C23 18.812 22.973 18.75 22.969 18.687C22.973 18.625 23 18.562 23 18.5C23 18.129 22.867 17.812 22.781 17.469C24.078 16.367 25 14.829 25 13C25 11.754 24.582 10.637 23.937 9.687C23.973 9.465 24 9.247 24 9C24 6.55 22.176 4.605 19.844 4.187C19.457 2.388 17.91 1 16 1C14.8 1 13.734 1.559 13 2.406C12.266 1.56 11.2 1 10 1ZM10 3C11.117 3 12 3.883 12 5V7C12 8.668 10.668 10 9 10V12C10.133 12 11.16 11.61 12 10.969V21.5C12 22.34 11.34 23 10.5 23C10.1501 23.0049 9.80999 22.8848 9.54072 22.6614C9.27145 22.4379 9.09071 22.1258 9.031 21.781L8.844 20.813L7.875 20.969C7.51895 21.0252 7.15493 21.0034 6.80815 20.905C6.46138 20.8066 6.14013 20.634 5.86667 20.3992C5.5932 20.1644 5.37406 19.8729 5.22441 19.5449C5.07477 19.217 4.99819 18.8605 5 18.5C5 18.191 5.05 17.902 5.156 17.625C5.164 17.602 5.18 17.585 5.187 17.562C5.34044 17.1808 5.58662 16.844 5.90322 16.582C6.21983 16.3201 6.59682 16.1413 7 16.062L6.594 14.094C5.57339 14.2956 4.65561 14.8482 4 15.656C3.34981 14.9247 2.99355 13.9785 3 13C2.99829 12.1007 3.3074 11.2285 3.875 10.531L4.188 10.156L4.094 9.656C4.03734 9.44172 4.00579 9.22157 4 9C4 7.332 5.332 6 7 6H8V5C8 3.883 8.883 3 10 3ZM16 3C17.117 3 18 3.883 18 5V6H19C20.668 6 22 7.332 22 9C22 9.215 21.96 9.422 21.906 9.656L21.813 10.156L22.125 10.531C22.6926 11.2285 23.0017 12.1007 23 13C23 14.2 22.488 15.27 21.656 16C20.973 15.395 20.102 15 19.125 15C18.18 15 17.328 15.336 16.656 15.906L17.938 17.438C18.2679 17.1536 18.6895 16.9981 19.125 17C20.09 17 20.859 17.723 20.969 18.656C20.887 19.973 19.836 21 18.5 21C18.41 21 18.3 20.996 18.125 20.969L17.156 20.812L16.969 21.782C16.9091 22.1266 16.7282 22.4385 16.459 22.6618C16.1898 22.885 15.8497 23.0049 15.5 23C14.66 23 14 22.34 14 21.5V10.969C14.8586 11.6348 15.9135 11.9974 17 12V10C15.332 10 14 8.668 14 7V5C14 3.883 14.883 3 16 3Z" fill="white"/>
</svg>
