<svg width="24" height="24" viewBox="0 0 24 24" fill="none" xmlns="http://www.w3.org/2000/svg">
<path d="M9.24001 10.8C11.556 10.8 13.44 12.684 13.44 15C13.44 17.316 11.556 19.2 9.24001 19.2C6.92401 19.2 5.04001 17.316 5.04001 15C5.04001 12.684 6.92401 10.8 9.24001 10.8ZM9.24001 8.39999C5.59201 8.39999 2.64001 11.352 2.64001 15C2.64001 18.648 5.59201 21.6 9.24001 21.6C12.888 21.6 15.84 18.648 15.84 15C15.84 13.608 15.408 12.324 14.676 11.256L19.44 6.50399V9.59999H21.84V2.39999H14.64V4.79999H17.736L12.972 9.56399C11.916 8.83199 10.632 8.39999 9.24001 8.39999Z" fill="white"/>
</svg>
