
<svg viewBox="0 0 621 221" fill="none" xmlns="http://www.w3.org/2000/svg">
  <path d="M155.876 18V1.2h16.8v2.712h-13.248v3.96h9.672v2.616h-9.672V18h-3.552Zm28.464.456c-6.264 0-10.608-3.672-10.608-8.832 0-5.184 4.344-8.880001 10.608-8.880001 6.336 0 10.728 3.696001 10.728 8.880001s-4.392 8.832-10.728 8.832Zm-6.768-8.832c0 3.576 2.688 5.976 6.792 5.976 4.128 0 6.84-2.4 6.84-5.976 0-3.6-2.712-6.024-6.84-6.024-4.104 0-6.792 2.424-6.792 6.024Zm29.717 8.832c-5.136 0-8.88-2.664-8.88-7.344V1.2h3.576v9.552c0 3.24 2.208 4.776 5.328 4.776 3.072 0 5.208-1.536 5.208-4.776V1.2h3.504v9.936c0 4.584-3.624 7.32-8.736 7.32ZM220.54 18V1.2h4.488l10.2 11.448V1.2h3.312V18h-2.736L223.852 4.536V18h-3.312Zm22.758 0V1.2h9.192c6.36 0 10.128 3.168 10.128 8.304 0 5.208-3.744 8.496-10.104 8.496h-9.216Zm3.576-2.736h5.16c4.44 0 6.744-2.16 6.744-5.76 0-3.552-2.28-5.568-6.6-5.568h-5.304v11.328ZM266.267 18V1.2h16.704v2.712h-13.128v3.912h8.352v2.592h-8.352v4.824h13.8V18h-17.376Zm20.578 0V1.2h10.464c4.368 0 6.864 1.848 6.864 4.92 0 2.688-2.208 4.488-5.832 4.776L304.509 18h-4.368l-5.736-6.936h-3.984V18h-3.576Zm3.576-9.48h6.36c2.52 0 3.768-.912 3.768-2.4 0-1.44-1.296-2.232-3.624-2.232h-6.504V8.52Zm16.87-1.416c.96-.144 1.656-.84 1.656-1.992v-.264h-1.656V1.2h3.72v3.504c0 2.856-1.416 4.104-3.72 4.32v-1.92Zm15.843 11.376c-3.816 0-7.152-1.296-9.264-3.72-.312-.312-.6-.624-.84-.96l3.456-1.032c.192.264.408.48.624.72 1.368 1.488 3.648 2.256 6.24 2.256 3.024 0 4.968-.96 4.968-2.544 0-1.176-.912-1.92-3.624-2.232l-4.44-.456c-4.416-.504-6.024-2.16-6.024-4.464 0-3.024 3.144-5.304001 8.52-5.304001 3.24 0 6.432 1.128001 8.232 3.168001.312.288.552.6.72.888l-3.432.912c-.168-.192-.264-.312-.456-.504-1.176-1.152-3.12-1.776-5.232-1.776-3.072 0-4.728.936-4.728 2.184 0 1.008.888 1.704 3.264 1.944l4.608.432c4.296.432 6.432 1.992 6.432 4.752 0 3.336-3.336 5.736-9.024 5.736Zm19.68-.48V1.2h16.704v2.712H346.39v3.912h8.352v2.592h-8.352v4.824h13.8V18h-17.376Zm20.578 0V1.2h9.192c6.36 0 10.128 3.168 10.128 8.304 0 5.208-3.744 8.496-10.104 8.496h-9.216Zm3.576-2.736h5.16c4.44 0 6.744-2.16 6.744-5.76 0-3.552-2.28-5.568-6.6-5.568h-5.304v11.328ZM386.36 18V1.2h3.576V18h-3.576Zm14.081 0V4.008h-7.656V1.2h18.912v2.808h-7.68V18h-3.576Zm14.138 0V1.2h3.576V18h-3.576Zm17.753.456c-6.264 0-10.608-3.672-10.608-8.832 0-5.184 4.344-8.880001 10.608-8.880001 6.336 0 10.728 3.696001 10.728 8.880001s-4.392 8.832-10.728 8.832Zm-6.768-8.832c0 3.576 2.688 5.976 6.792 5.976 4.128 0 6.84-2.4 6.84-5.976 0-3.6-2.712-6.024-6.84-6.024-4.104 0-6.792 2.424-6.792 6.024ZM446.642 18V1.2h4.488l10.2 11.448V1.2h3.312V18h-2.736L449.954 4.536V18h-3.312Z" fill="#FAF4F2"/>
  <g clipPath="url(#clip0_5515_215)" fill="#FF9D00">
    <path d="M74.7435 42.0239H96.073V131.53c0 31.044-22.1344 49.792-47.8909 49.792-27.165 0-48.0922562-20.965-48.0922562-49.188 0-29.23 19.7195562-49.389 43.8666562-49.389 11.8719 0 23.543 5.4428 30.787 14.5145V42.0239Zm.2008 90.1101c0-19.554-13.4818-30.44-27.3663-30.44-15.0912 0-26.3601 12.297-26.3601 30.44s11.8725 30.239 26.9642 30.239c14.0854 0 26.7622-11.088 26.7622-30.239Zm125.8067 0v47.172h-18.714l-1.61-14.514c-6.841 10.684-18.714 16.53-30.988 16.53-25.354 0-45.275-20.159-45.275-49.188 0-28.222 20.927-49.3889 48.495-49.3889 26.159 0 48.092 18.1429 48.092 49.3889Zm-20.927 0c0-19.151-12.677-30.44-27.165-30.44-15.294 0-27.367 12.297-27.367 30.44 0 18.144 11.47 30.239 27.367 30.239 13.683 0 27.165-10.684 27.165-30.239Zm90.479-47.3733h22.939L241.126 219.019h-23.141l16.702-40.318-36.421-93.9403h23.743l24.147 68.5543 24.147-68.5543Zm29.779 94.5453V42.0239h21.129V179.306h-21.129Zm33.199-124.7835c0-7.6603 6.037-13.5064 13.683-13.5064 7.445 0 13.482 5.8461 13.482 13.5064 0 7.4589-6.037 13.3049-13.482 13.3049-7.646 0-13.683-5.846-13.683-13.3049ZM336.3 179.306V84.761h21.128v94.545H336.3Zm126.162-46.97v37.093c0 34.27-20.727 51.606-46.282 51.606-23.945 0-41.653-13.909-46.281-35.479h20.726c3.823 11.289 13.885 16.732 25.555 16.732 14.69 0 26.159-9.677 26.159-30.44v-7.258c-7.042 10.281-19.518 15.926-31.39 15.926-24.147 0-43.867-19.957-43.867-48.785 0-28.021 20.927-48.9859 48.293-48.9859 25.757 0 47.087 18.7479 47.087 49.5909Zm-20.324-.605c0-18.949-12.677-30.037-26.763-30.037-15.092 0-27.165 12.096-27.165 30.037 0 17.942 11.269 30.037 26.562 30.037 14.085 0 27.366-10.684 27.366-30.037Zm118.317-8.466v56.041h-21.329v-52.211c0-17.942-10.061-25.199-20.525-25.199-11.469 0-23.14 10.483-23.14 26.811v50.599h-21.129V42.0239h21.129V98.469c6.841-10.8858 18.311-15.724 29.378-15.724 19.116 0 35.616 13.305 35.616 40.52Zm60.632-20.764h-27.769v40.318c0 14.111 5.634 18.949 20.122 18.949 1.61 0 3.019 0 7.043-.201v17.538c-4.427 1.008-8.451 1.613-13.079 1.613-20.123 0-35.416-12.297-35.416-35.48V53.7163h21.33v31.0448h27.769v17.7399Z"/>
  </g>
  <defs>
    <clipPath id="clip0_5515_215">
      <path fill="#fff" d="M0 41h621v180H0z"/>
    </clipPath>
  </defs>
</svg>