<svg viewBox="0 0 1379 184" fill="none" xmlns="http://www.w3.org/2000/svg">
  <path fill-rule="evenodd" clip-rule="evenodd" d="M0 0H331.62C340.336 0 348.557 1.76333 356.283 5.29C364.009 8.81667 370.249 13.57 375.004 19.55C379.758 25.53 382.135 32.1233 382.135 39.33V144.44C382.135 151.493 379.758 158.087 375.004 164.22C370.249 170.2 364.009 175.03 356.283 178.71C348.557 182.237 340.336 184 331.62 184H0V0ZM327.162 157.09C332.907 157.09 337.662 155.633 341.426 152.72C345.388 149.653 347.369 145.743 347.369 140.99L347.071 42.55C347.071 37.7967 345.19 33.9633 341.426 31.05C337.662 28.1367 332.808 26.68 326.865 26.68H34.7666V157.09H327.162Z M531.005 184C522.289 184 513.969 182.237 506.045 178.71C498.319 175.03 492.078 170.2 487.324 164.22C482.768 158.24 480.49 151.723 480.49 144.67V39.33C480.49 32.1233 482.867 25.53 487.621 19.55C492.376 13.4167 498.616 8.66333 506.342 5.29C514.068 1.76333 522.289 0 531.005 0H812.406C821.123 0 829.344 1.76333 837.07 5.29C844.994 8.81667 851.234 13.6467 855.79 19.78C860.545 25.76 862.922 32.2767 862.922 39.33V65.09H828.453V42.78C828.453 38.0267 826.472 34.1933 822.51 31.28C818.746 28.2133 813.991 26.68 808.246 26.68H535.462C529.718 26.68 524.864 28.2133 520.902 31.28C517.138 34.1933 515.256 38.0267 515.256 42.78V140.99C515.256 145.743 517.237 149.653 521.199 152.72C525.161 155.633 530.015 157.09 535.76 157.09H807.949C813.892 157.09 818.746 155.633 822.51 152.72C826.273 149.653 828.155 145.82 828.155 141.22L828.453 108.33H671.557V85.33H862.922V144.67C862.922 151.877 860.545 158.47 855.79 164.45C851.036 170.43 844.697 175.183 836.773 178.71C829.047 182.237 820.826 184 812.109 184H531.005Z M963.881 0H997.459L1170.7 110.86L1343.94 0H1379V184H1344.23V33.81L1175.75 141.68H1165.65L998.648 34.96V184H963.881V0Z" fill="currentColor"/>
</svg>